<svg width="1161" height="390" viewBox="0 0 1161 390" fill="none" xmlns="http://www.w3.org/2000/svg">
<path d="M0.587402 20C0.587402 8.9543 9.54171 0 20.5874 0H1140.59C1151.63 0 1160.59 8.95431 1160.59 20V370C1160.59 381.046 1151.63 390 1140.59 390H20.5874C9.54168 390 0.587402 381.046 0.587402 370V20Z" fill="#12152E"/>
<path d="M0 280.157V280.157C43.0908 272.366 83.8867 250.713 100.778 210.313C107.531 194.161 115.524 173.517 124.949 147.138C170.898 18.5294 240 0.156728 240 0.156728H20C8.9543 0.156728 3.41424e-06 9.11103 3.2751e-06 20.1567L0 280.157Z" fill="#A1AAF3" fill-opacity="0.2"/>
<path d="M1160.59 110V110C1117.5 117.791 1076.7 139.444 1059.81 179.844C1053.06 195.996 1045.06 216.639 1035.64 243.018C989.69 371.627 920.587 390 920.587 390H1140.59C1151.63 390 1160.59 381.046 1160.59 370L1160.59 110Z" fill="#A1AAF3" fill-opacity="0.2"/>
</svg>
