<svg width="1120" height="357" viewBox="0 0 1120 357" fill="none" xmlns="http://www.w3.org/2000/svg">
<g filter="url(#filter0_d_1_1666)">
<rect x="21" y="21" width="200" height="120" rx="20" fill="white"/>
</g>
<g filter="url(#filter1_d_1_1666)">
<rect x="21" y="208" width="200" height="120" rx="20" fill="#5A67D8" fill-opacity="0.2" shape-rendering="crispEdges"/>
</g>
<g filter="url(#filter2_d_1_1666)">
<rect x="311" y="21" width="200" height="120" rx="20" fill="white"/>
</g>
<g filter="url(#filter3_d_1_1666)">
<rect x="601" y="21" width="200" height="120" rx="20" fill="white"/>
</g>
<g filter="url(#filter4_d_1_1666)">
<rect x="311" y="208" width="490" height="120" rx="20" fill="white"/>
</g>
<g filter="url(#filter5_d_1_1666)">
<rect x="891" y="21" width="200" height="120" rx="20" fill="white"/>
</g>
<g filter="url(#filter6_d_1_1666)">
<rect x="891" y="208" width="200" height="120" rx="20" fill="#5A67D8" fill-opacity="0.2" shape-rendering="crispEdges"/>
</g>
<path d="M86.7087 67.372C87.3007 67.372 87.8167 67.3 88.2567 67.156C88.6967 67.004 89.0607 66.792 89.3487 66.52C89.6447 66.24 89.8647 65.904 90.0087 65.512C90.1527 65.112 90.2247 64.668 90.2247 64.18C90.2247 63.716 90.1527 63.296 90.0087 62.92C89.8647 62.544 89.6487 62.224 89.3607 61.96C89.0727 61.696 88.7087 61.496 88.2687 61.36C87.8287 61.216 87.3087 61.144 86.7087 61.144H84.2967V67.372H86.7087ZM86.7087 58.648C87.8687 58.648 88.8727 58.784 89.7207 59.056C90.5687 59.328 91.2687 59.708 91.8207 60.196C92.3727 60.684 92.7807 61.268 93.0447 61.948C93.3167 62.628 93.4527 63.372 93.4527 64.18C93.4527 65.02 93.3127 65.792 93.0327 66.496C92.7527 67.192 92.3327 67.792 91.7727 68.296C91.2127 68.8 90.5087 69.192 89.6607 69.472C88.8207 69.752 87.8367 69.892 86.7087 69.892H84.2967V76H81.0687V58.648H86.7087ZM98.0686 65.824C98.4526 65.088 98.9086 64.512 99.4366 64.096C99.9646 63.672 100.589 63.46 101.309 63.46C101.877 63.46 102.333 63.584 102.677 63.832L102.485 66.052C102.445 66.196 102.385 66.3 102.305 66.364C102.233 66.42 102.133 66.448 102.005 66.448C101.885 66.448 101.705 66.428 101.465 66.388C101.233 66.348 101.005 66.328 100.781 66.328C100.453 66.328 100.161 66.376 99.9046 66.472C99.6486 66.568 99.4166 66.708 99.2086 66.892C99.0086 67.068 98.8286 67.284 98.6686 67.54C98.5166 67.796 98.3726 68.088 98.2366 68.416V76H95.2726V63.688H97.0126C97.3166 63.688 97.5286 63.744 97.6486 63.856C97.7686 63.96 97.8486 64.152 97.8886 64.432L98.0686 65.824ZM109.322 63.496C110.234 63.496 111.062 63.644 111.806 63.94C112.558 64.236 113.198 64.656 113.726 65.2C114.262 65.744 114.674 66.408 114.962 67.192C115.25 67.976 115.394 68.852 115.394 69.82C115.394 70.796 115.25 71.676 114.962 72.46C114.674 73.244 114.262 73.912 113.726 74.464C113.198 75.016 112.558 75.44 111.806 75.736C111.062 76.032 110.234 76.18 109.322 76.18C108.402 76.18 107.566 76.032 106.814 75.736C106.062 75.44 105.418 75.016 104.882 74.464C104.354 73.912 103.942 73.244 103.646 72.46C103.358 71.676 103.214 70.796 103.214 69.82C103.214 68.852 103.358 67.976 103.646 67.192C103.942 66.408 104.354 65.744 104.882 65.2C105.418 64.656 106.062 64.236 106.814 63.94C107.566 63.644 108.402 63.496 109.322 63.496ZM109.322 73.9C110.346 73.9 111.102 73.556 111.59 72.868C112.086 72.18 112.334 71.172 112.334 69.844C112.334 68.516 112.086 67.504 111.59 66.808C111.102 66.112 110.346 65.764 109.322 65.764C108.282 65.764 107.51 66.116 107.006 66.82C106.51 67.516 106.262 68.524 106.262 69.844C106.262 71.164 106.51 72.172 107.006 72.868C107.51 73.556 108.282 73.9 109.322 73.9ZM125.383 66.832C125.047 66.424 124.679 66.136 124.279 65.968C123.887 65.8 123.463 65.716 123.007 65.716C122.559 65.716 122.155 65.8 121.795 65.968C121.435 66.136 121.127 66.392 120.871 66.736C120.615 67.072 120.419 67.504 120.283 68.032C120.147 68.552 120.079 69.168 120.079 69.88C120.079 70.6 120.135 71.212 120.247 71.716C120.367 72.212 120.535 72.62 120.751 72.94C120.967 73.252 121.231 73.48 121.543 73.624C121.855 73.76 122.203 73.828 122.587 73.828C123.203 73.828 123.727 73.7 124.159 73.444C124.591 73.188 124.999 72.824 125.383 72.352V66.832ZM128.347 58.168V76H126.535C126.143 76 125.895 75.82 125.791 75.46L125.539 74.272C125.043 74.84 124.471 75.3 123.823 75.652C123.183 76.004 122.435 76.18 121.579 76.18C120.907 76.18 120.291 76.04 119.731 75.76C119.171 75.48 118.687 75.076 118.279 74.548C117.879 74.012 117.567 73.352 117.343 72.568C117.127 71.784 117.019 70.888 117.019 69.88C117.019 68.968 117.143 68.12 117.391 67.336C117.639 66.552 117.995 65.872 118.459 65.296C118.923 64.72 119.479 64.272 120.127 63.952C120.775 63.624 121.503 63.46 122.311 63.46C122.999 63.46 123.587 63.568 124.075 63.784C124.563 64 124.999 64.292 125.383 64.66V58.168H128.347ZM141.881 63.688V76H140.069C139.677 76 139.429 75.82 139.325 75.46L139.121 74.476C138.617 74.988 138.061 75.404 137.453 75.724C136.845 76.036 136.129 76.192 135.305 76.192C134.633 76.192 134.037 76.08 133.517 75.856C133.005 75.624 132.573 75.3 132.221 74.884C131.869 74.468 131.601 73.976 131.417 73.408C131.241 72.832 131.153 72.2 131.153 71.512V63.688H134.117V71.512C134.117 72.264 134.289 72.848 134.633 73.264C134.985 73.672 135.509 73.876 136.205 73.876C136.717 73.876 137.197 73.764 137.645 73.54C138.093 73.308 138.517 72.992 138.917 72.592V63.688H141.881ZM153.639 66.292C153.551 66.404 153.463 66.492 153.375 66.556C153.295 66.62 153.175 66.652 153.015 66.652C152.863 66.652 152.715 66.608 152.571 66.52C152.427 66.424 152.255 66.32 152.055 66.208C151.855 66.088 151.615 65.984 151.335 65.896C151.063 65.8 150.723 65.752 150.315 65.752C149.795 65.752 149.339 65.848 148.947 66.04C148.555 66.224 148.227 66.492 147.963 66.844C147.707 67.196 147.515 67.624 147.387 68.128C147.259 68.624 147.195 69.188 147.195 69.82C147.195 70.476 147.263 71.06 147.399 71.572C147.543 72.084 147.747 72.516 148.011 72.868C148.275 73.212 148.595 73.476 148.971 73.66C149.347 73.836 149.771 73.924 150.243 73.924C150.715 73.924 151.095 73.868 151.383 73.756C151.679 73.636 151.927 73.508 152.127 73.372C152.327 73.228 152.499 73.1 152.643 72.988C152.795 72.868 152.963 72.808 153.147 72.808C153.387 72.808 153.567 72.9 153.687 73.084L154.539 74.164C154.211 74.548 153.855 74.872 153.471 75.136C153.087 75.392 152.687 75.6 152.271 75.76C151.863 75.912 151.439 76.02 150.999 76.084C150.567 76.148 150.135 76.18 149.703 76.18C148.943 76.18 148.227 76.04 147.555 75.76C146.883 75.472 146.295 75.056 145.791 74.512C145.287 73.968 144.887 73.304 144.591 72.52C144.303 71.728 144.159 70.828 144.159 69.82C144.159 68.916 144.287 68.08 144.543 67.312C144.807 66.536 145.191 65.868 145.695 65.308C146.199 64.74 146.823 64.296 147.567 63.976C148.311 63.656 149.167 63.496 150.135 63.496C151.055 63.496 151.859 63.644 152.547 63.94C153.243 64.236 153.867 64.66 154.419 65.212L153.639 66.292ZM160.502 76.192C159.43 76.192 158.606 75.892 158.03 75.292C157.462 74.684 157.178 73.848 157.178 72.784V65.908H155.918C155.758 65.908 155.622 65.856 155.51 65.752C155.398 65.648 155.342 65.492 155.342 65.284V64.108L157.322 63.784L157.946 60.424C157.986 60.264 158.062 60.14 158.174 60.052C158.286 59.964 158.43 59.92 158.606 59.92H160.142V63.796H163.43V65.908H160.142V72.58C160.142 72.964 160.234 73.264 160.418 73.48C160.61 73.696 160.87 73.804 161.198 73.804C161.382 73.804 161.534 73.784 161.654 73.744C161.782 73.696 161.89 73.648 161.978 73.6C162.074 73.552 162.158 73.508 162.23 73.468C162.302 73.42 162.374 73.396 162.446 73.396C162.534 73.396 162.606 73.42 162.662 73.468C162.718 73.508 162.778 73.572 162.842 73.66L163.73 75.1C163.298 75.46 162.802 75.732 162.242 75.916C161.682 76.1 161.102 76.192 160.502 76.192ZM85.0627 96.324C85.0627 97.596 84.8507 98.764 84.4267 99.828C84.0027 100.892 83.4067 101.808 82.6387 102.576C81.8707 103.344 80.9467 103.94 79.8667 104.364C78.7867 104.788 77.5867 105 76.2667 105H69.6547V87.648H76.2667C77.5867 87.648 78.7867 87.864 79.8667 88.296C80.9467 88.72 81.8707 89.316 82.6387 90.084C83.4067 90.844 84.0027 91.756 84.4267 92.82C84.8507 93.884 85.0627 95.052 85.0627 96.324ZM81.7507 96.324C81.7507 95.372 81.6227 94.52 81.3667 93.768C81.1187 93.008 80.7547 92.368 80.2747 91.848C79.8027 91.32 79.2267 90.916 78.5467 90.636C77.8747 90.356 77.1147 90.216 76.2667 90.216H72.8947V102.432H76.2667C77.1147 102.432 77.8747 102.292 78.5467 102.012C79.2267 101.732 79.8027 101.332 80.2747 100.812C80.7547 100.284 81.1187 99.644 81.3667 98.892C81.6227 98.132 81.7507 97.276 81.7507 96.324ZM95.2124 97.428C95.2124 97.044 95.1564 96.684 95.0444 96.348C94.9404 96.004 94.7804 95.704 94.5644 95.448C94.3484 95.192 94.0724 94.992 93.7364 94.848C93.4084 94.696 93.0244 94.62 92.5844 94.62C91.7284 94.62 91.0524 94.864 90.5564 95.352C90.0684 95.84 89.7564 96.532 89.6204 97.428H95.2124ZM89.5604 99.216C89.6084 99.848 89.7204 100.396 89.8964 100.86C90.0724 101.316 90.3044 101.696 90.5924 102C90.8804 102.296 91.2204 102.52 91.6124 102.672C92.0124 102.816 92.4524 102.888 92.9324 102.888C93.4124 102.888 93.8244 102.832 94.1684 102.72C94.5204 102.608 94.8244 102.484 95.0804 102.348C95.3444 102.212 95.5724 102.088 95.7644 101.976C95.9644 101.864 96.1564 101.808 96.3404 101.808C96.5884 101.808 96.7724 101.9 96.8924 102.084L97.7444 103.164C97.4164 103.548 97.0484 103.872 96.6404 104.136C96.2324 104.392 95.8044 104.6 95.3564 104.76C94.9164 104.912 94.4644 105.02 94.0004 105.084C93.5444 105.148 93.1004 105.18 92.6684 105.18C91.8124 105.18 91.0164 105.04 90.2804 104.76C89.5444 104.472 88.9044 104.052 88.3604 103.5C87.8164 102.94 87.3884 102.252 87.0764 101.436C86.7644 100.612 86.6084 99.66 86.6084 98.58C86.6084 97.74 86.7444 96.952 87.0164 96.216C87.2884 95.472 87.6764 94.828 88.1804 94.284C88.6924 93.732 89.3124 93.296 90.0404 92.976C90.7764 92.656 91.6044 92.496 92.5244 92.496C93.3004 92.496 94.0164 92.62 94.6724 92.868C95.3284 93.116 95.8924 93.48 96.3644 93.96C96.8364 94.432 97.2044 95.016 97.4684 95.712C97.7404 96.4 97.8764 97.188 97.8764 98.076C97.8764 98.524 97.8284 98.828 97.7324 98.988C97.6364 99.14 97.4524 99.216 97.1804 99.216H89.5604ZM100.789 105V94.92L99.7212 94.752C99.4892 94.704 99.3012 94.624 99.1572 94.512C99.0212 94.392 98.9532 94.224 98.9532 94.008V92.796H100.789V92.4C100.789 91.648 100.913 90.952 101.161 90.312C101.409 89.664 101.785 89.104 102.289 88.632C102.793 88.16 103.429 87.792 104.197 87.528C104.973 87.256 105.885 87.12 106.933 87.12C107.269 87.12 107.609 87.14 107.953 87.18C108.305 87.212 108.609 87.268 108.865 87.348L108.769 88.884C108.753 89.068 108.653 89.18 108.469 89.22C108.285 89.252 108.057 89.268 107.785 89.268C107.009 89.268 106.357 89.336 105.829 89.472C105.309 89.608 104.885 89.812 104.557 90.084C104.237 90.348 104.005 90.684 103.861 91.092C103.725 91.492 103.657 91.96 103.657 92.496V92.796H111.289V105H108.325V94.908H103.753V105H100.789ZM117.099 94.2C117.347 93.952 117.607 93.724 117.879 93.516C118.159 93.3 118.451 93.12 118.755 92.976C119.067 92.824 119.399 92.708 119.751 92.628C120.103 92.54 120.487 92.496 120.903 92.496C121.575 92.496 122.171 92.612 122.691 92.844C123.211 93.068 123.643 93.388 123.987 93.804C124.339 94.212 124.603 94.704 124.779 95.28C124.963 95.848 125.055 96.476 125.055 97.164V105H122.091V97.164C122.091 96.412 121.919 95.832 121.575 95.424C121.231 95.008 120.707 94.8 120.003 94.8C119.491 94.8 119.011 94.916 118.563 95.148C118.115 95.38 117.691 95.696 117.291 96.096V105H114.327V92.688H116.139C116.523 92.688 116.775 92.868 116.895 93.228L117.099 94.2ZM130.946 92.688V105H127.97V92.688H130.946ZM131.354 89.1C131.354 89.356 131.302 89.596 131.198 89.82C131.094 90.044 130.954 90.24 130.778 90.408C130.61 90.576 130.41 90.712 130.178 90.816C129.946 90.912 129.698 90.96 129.434 90.96C129.178 90.96 128.934 90.912 128.702 90.816C128.478 90.712 128.282 90.576 128.114 90.408C127.946 90.24 127.81 90.044 127.706 89.82C127.61 89.596 127.562 89.356 127.562 89.1C127.562 88.836 127.61 88.588 127.706 88.356C127.81 88.124 127.946 87.924 128.114 87.756C128.282 87.588 128.478 87.456 128.702 87.36C128.934 87.256 129.178 87.204 129.434 87.204C129.698 87.204 129.946 87.256 130.178 87.36C130.41 87.456 130.61 87.588 130.778 87.756C130.954 87.924 131.094 88.124 131.198 88.356C131.302 88.588 131.354 88.836 131.354 89.1ZM146.388 105H143.424V94.908H137.712V101.58C137.712 101.964 137.804 102.264 137.988 102.48C138.18 102.696 138.44 102.804 138.768 102.804C138.952 102.804 139.104 102.784 139.224 102.744C139.352 102.696 139.46 102.648 139.548 102.6C139.644 102.552 139.728 102.508 139.8 102.468C139.872 102.42 139.944 102.396 140.016 102.396C140.104 102.396 140.176 102.42 140.232 102.468C140.288 102.508 140.348 102.572 140.412 102.66L141.3 104.1C140.868 104.46 140.372 104.732 139.812 104.916C139.252 105.1 138.672 105.192 138.072 105.192C137 105.192 136.176 104.892 135.6 104.292C135.032 103.684 134.748 102.848 134.748 101.784V94.908H133.488C133.328 94.908 133.192 94.856 133.08 94.752C132.968 94.648 132.912 94.492 132.912 94.284V93.108L134.892 92.772L135.516 89.424C135.556 89.264 135.632 89.14 135.744 89.052C135.856 88.964 136 88.92 136.176 88.92H137.712V92.796H146.388V105ZM146.904 89.052C146.904 89.308 146.852 89.552 146.748 89.784C146.644 90.008 146.504 90.204 146.328 90.372C146.16 90.54 145.956 90.676 145.716 90.78C145.484 90.876 145.236 90.924 144.972 90.924C144.716 90.924 144.476 90.876 144.252 90.78C144.028 90.676 143.832 90.54 143.664 90.372C143.496 90.204 143.36 90.008 143.256 89.784C143.16 89.552 143.112 89.308 143.112 89.052C143.112 88.788 143.16 88.544 143.256 88.32C143.36 88.088 143.496 87.888 143.664 87.72C143.832 87.544 144.028 87.408 144.252 87.312C144.476 87.208 144.716 87.156 144.972 87.156C145.236 87.156 145.484 87.208 145.716 87.312C145.956 87.408 146.16 87.544 146.328 87.72C146.504 87.888 146.644 88.088 146.748 88.32C146.852 88.544 146.904 88.788 146.904 89.052ZM154.861 92.496C155.773 92.496 156.601 92.644 157.345 92.94C158.097 93.236 158.737 93.656 159.265 94.2C159.801 94.744 160.213 95.408 160.501 96.192C160.789 96.976 160.933 97.852 160.933 98.82C160.933 99.796 160.789 100.676 160.501 101.46C160.213 102.244 159.801 102.912 159.265 103.464C158.737 104.016 158.097 104.44 157.345 104.736C156.601 105.032 155.773 105.18 154.861 105.18C153.941 105.18 153.105 105.032 152.353 104.736C151.601 104.44 150.957 104.016 150.421 103.464C149.893 102.912 149.481 102.244 149.185 101.46C148.897 100.676 148.753 99.796 148.753 98.82C148.753 97.852 148.897 96.976 149.185 96.192C149.481 95.408 149.893 94.744 150.421 94.2C150.957 93.656 151.601 93.236 152.353 92.94C153.105 92.644 153.941 92.496 154.861 92.496ZM154.861 102.9C155.885 102.9 156.641 102.556 157.129 101.868C157.625 101.18 157.873 100.172 157.873 98.844C157.873 97.516 157.625 96.504 157.129 95.808C156.641 95.112 155.885 94.764 154.861 94.764C153.821 94.764 153.049 95.116 152.545 95.82C152.049 96.516 151.801 97.524 151.801 98.844C151.801 100.164 152.049 101.172 152.545 101.868C153.049 102.556 153.821 102.9 154.861 102.9ZM165.966 94.2C166.214 93.952 166.474 93.724 166.746 93.516C167.026 93.3 167.318 93.12 167.622 92.976C167.934 92.824 168.266 92.708 168.618 92.628C168.97 92.54 169.354 92.496 169.77 92.496C170.442 92.496 171.038 92.612 171.558 92.844C172.078 93.068 172.51 93.388 172.854 93.804C173.206 94.212 173.47 94.704 173.646 95.28C173.83 95.848 173.922 96.476 173.922 97.164V105H170.958V97.164C170.958 96.412 170.786 95.832 170.442 95.424C170.098 95.008 169.574 94.8 168.87 94.8C168.358 94.8 167.878 94.916 167.43 95.148C166.982 95.38 166.558 95.696 166.158 96.096V105H163.194V92.688H165.006C165.39 92.688 165.642 92.868 165.762 93.228L165.966 94.2Z" fill="#12152E"/>
<path d="M370.801 81.072C371.457 81.072 372.033 80.992 372.529 80.832C373.033 80.672 373.453 80.448 373.789 80.16C374.125 79.864 374.377 79.516 374.545 79.116C374.713 78.708 374.797 78.26 374.797 77.772C374.797 76.78 374.469 76.032 373.813 75.528C373.165 75.024 372.189 74.772 370.885 74.772H368.473V81.072H370.801ZM378.841 90H376.561C376.105 90 375.773 89.82 375.565 89.46L371.305 83.484C371.169 83.284 371.021 83.144 370.861 83.064C370.701 82.976 370.461 82.932 370.141 82.932H368.473V90H365.917V72.768H370.885C371.997 72.768 372.953 72.884 373.753 73.116C374.561 73.34 375.225 73.664 375.745 74.088C376.273 74.504 376.661 75.008 376.909 75.6C377.165 76.192 377.293 76.856 377.293 77.592C377.293 78.192 377.201 78.756 377.017 79.284C376.833 79.812 376.561 80.288 376.201 80.712C375.849 81.128 375.417 81.488 374.905 81.792C374.393 82.096 373.813 82.328 373.165 82.488C373.485 82.68 373.761 82.948 373.993 83.292L378.841 90ZM387.857 82.548C387.857 82.084 387.789 81.656 387.653 81.264C387.525 80.872 387.333 80.532 387.077 80.244C386.821 79.956 386.509 79.732 386.141 79.572C385.773 79.412 385.349 79.332 384.869 79.332C383.885 79.332 383.109 79.616 382.541 80.184C381.981 80.752 381.625 81.54 381.473 82.548H387.857ZM389.789 88.26C389.501 88.596 389.169 88.888 388.793 89.136C388.417 89.376 388.017 89.572 387.593 89.724C387.169 89.876 386.729 89.988 386.273 90.06C385.825 90.132 385.381 90.168 384.941 90.168C384.101 90.168 383.321 90.028 382.601 89.748C381.889 89.46 381.269 89.044 380.741 88.5C380.221 87.948 379.813 87.268 379.517 86.46C379.229 85.644 379.085 84.708 379.085 83.652C379.085 82.804 379.217 82.016 379.481 81.288C379.745 80.552 380.121 79.912 380.609 79.368C381.105 78.824 381.709 78.396 382.421 78.084C383.133 77.772 383.933 77.616 384.821 77.616C385.565 77.616 386.249 77.74 386.873 77.988C387.505 78.228 388.049 78.58 388.505 79.044C388.961 79.508 389.317 80.08 389.573 80.76C389.837 81.44 389.969 82.216 389.969 83.088C389.969 83.448 389.929 83.692 389.849 83.82C389.769 83.94 389.621 84 389.405 84H381.413C381.437 84.728 381.541 85.364 381.725 85.908C381.909 86.444 382.161 86.892 382.481 87.252C382.809 87.612 383.197 87.88 383.645 88.056C384.093 88.232 384.593 88.32 385.145 88.32C385.665 88.32 386.113 88.26 386.489 88.14C386.873 88.02 387.201 87.892 387.473 87.756C387.753 87.612 387.985 87.48 388.169 87.36C388.361 87.24 388.529 87.18 388.673 87.18C388.865 87.18 389.013 87.252 389.117 87.396L389.789 88.26ZM399.672 79.908C399.608 80.012 399.54 80.088 399.468 80.136C399.396 80.176 399.304 80.196 399.192 80.196C399.064 80.196 398.92 80.152 398.76 80.064C398.608 79.976 398.42 79.88 398.196 79.776C397.98 79.672 397.724 79.576 397.428 79.488C397.132 79.4 396.78 79.356 396.372 79.356C396.036 79.356 395.728 79.4 395.448 79.488C395.176 79.568 394.944 79.684 394.752 79.836C394.56 79.98 394.412 80.156 394.308 80.364C394.204 80.564 394.152 80.78 394.152 81.012C394.152 81.316 394.24 81.568 394.416 81.768C394.6 81.968 394.836 82.14 395.124 82.284C395.42 82.428 395.752 82.56 396.12 82.68C396.496 82.792 396.876 82.912 397.26 83.04C397.652 83.168 398.032 83.316 398.4 83.484C398.776 83.644 399.108 83.848 399.396 84.096C399.692 84.336 399.928 84.628 400.104 84.972C400.288 85.316 400.38 85.736 400.38 86.232C400.38 86.8 400.276 87.328 400.068 87.816C399.868 88.296 399.568 88.712 399.168 89.064C398.776 89.416 398.288 89.692 397.704 89.892C397.12 90.092 396.452 90.192 395.7 90.192C394.86 90.192 394.084 90.052 393.372 89.772C392.66 89.492 392.064 89.136 391.584 88.704L392.136 87.804C392.2 87.692 392.28 87.608 392.376 87.552C392.472 87.488 392.6 87.456 392.76 87.456C392.912 87.456 393.068 87.512 393.228 87.624C393.388 87.736 393.58 87.86 393.804 87.996C394.028 88.124 394.3 88.244 394.62 88.356C394.94 88.46 395.34 88.512 395.82 88.512C396.22 88.512 396.568 88.464 396.864 88.368C397.16 88.264 397.404 88.128 397.596 87.96C397.796 87.784 397.944 87.584 398.04 87.36C398.136 87.136 398.184 86.9 398.184 86.652C398.184 86.332 398.092 86.068 397.908 85.86C397.732 85.644 397.496 85.46 397.2 85.308C396.912 85.156 396.58 85.024 396.204 84.912C395.828 84.8 395.444 84.68 395.052 84.552C394.66 84.424 394.276 84.276 393.9 84.108C393.524 83.94 393.188 83.728 392.892 83.472C392.604 83.216 392.368 82.904 392.184 82.536C392.008 82.168 391.92 81.72 391.92 81.192C391.92 80.72 392.016 80.268 392.208 79.836C392.408 79.404 392.692 79.024 393.06 78.696C393.436 78.368 393.896 78.108 394.44 77.916C394.992 77.716 395.62 77.616 396.324 77.616C397.132 77.616 397.86 77.744 398.508 78C399.164 78.256 399.724 78.608 400.188 79.056L399.672 79.908ZM410.99 82.548C410.99 82.084 410.922 81.656 410.786 81.264C410.658 80.872 410.466 80.532 410.21 80.244C409.954 79.956 409.642 79.732 409.274 79.572C408.906 79.412 408.482 79.332 408.002 79.332C407.018 79.332 406.242 79.616 405.674 80.184C405.114 80.752 404.758 81.54 404.606 82.548H410.99ZM412.922 88.26C412.634 88.596 412.302 88.888 411.926 89.136C411.55 89.376 411.15 89.572 410.726 89.724C410.302 89.876 409.862 89.988 409.406 90.06C408.958 90.132 408.514 90.168 408.074 90.168C407.234 90.168 406.454 90.028 405.734 89.748C405.022 89.46 404.402 89.044 403.874 88.5C403.354 87.948 402.946 87.268 402.65 86.46C402.362 85.644 402.218 84.708 402.218 83.652C402.218 82.804 402.35 82.016 402.614 81.288C402.878 80.552 403.254 79.912 403.742 79.368C404.238 78.824 404.842 78.396 405.554 78.084C406.266 77.772 407.066 77.616 407.954 77.616C408.698 77.616 409.382 77.74 410.006 77.988C410.638 78.228 411.182 78.58 411.638 79.044C412.094 79.508 412.45 80.08 412.706 80.76C412.97 81.44 413.102 82.216 413.102 83.088C413.102 83.448 413.062 83.692 412.982 83.82C412.902 83.94 412.754 84 412.538 84H404.546C404.57 84.728 404.674 85.364 404.858 85.908C405.042 86.444 405.294 86.892 405.614 87.252C405.942 87.612 406.33 87.88 406.778 88.056C407.226 88.232 407.726 88.32 408.278 88.32C408.798 88.32 409.246 88.26 409.622 88.14C410.006 88.02 410.334 87.892 410.606 87.756C410.886 87.612 411.118 87.48 411.302 87.36C411.494 87.24 411.662 87.18 411.806 87.18C411.998 87.18 412.146 87.252 412.25 87.396L412.922 88.26ZM422.169 84.588C421.217 84.62 420.409 84.696 419.745 84.816C419.081 84.928 418.541 85.08 418.125 85.272C417.709 85.464 417.409 85.692 417.225 85.956C417.041 86.212 416.949 86.5 416.949 86.82C416.949 87.124 416.997 87.388 417.093 87.612C417.197 87.828 417.333 88.008 417.501 88.152C417.677 88.288 417.881 88.388 418.113 88.452C418.345 88.516 418.597 88.548 418.869 88.548C419.229 88.548 419.557 88.512 419.853 88.44C420.157 88.368 420.441 88.268 420.705 88.14C420.969 88.004 421.221 87.84 421.461 87.648C421.701 87.456 421.937 87.236 422.169 86.988V84.588ZM415.305 79.512C415.985 78.864 416.721 78.38 417.513 78.06C418.313 77.74 419.189 77.58 420.141 77.58C420.837 77.58 421.453 77.696 421.989 77.928C422.525 78.152 422.977 78.468 423.345 78.876C423.713 79.284 423.989 79.772 424.173 80.34C424.365 80.908 424.461 81.536 424.461 82.224V90H423.417C423.185 90 423.009 89.964 422.889 89.892C422.769 89.812 422.673 89.668 422.601 89.46L422.349 88.392C422.037 88.68 421.729 88.936 421.425 89.16C421.121 89.376 420.801 89.564 420.465 89.724C420.137 89.876 419.785 89.992 419.409 90.072C419.033 90.152 418.617 90.192 418.161 90.192C417.681 90.192 417.229 90.128 416.805 90C416.389 89.864 416.025 89.66 415.713 89.388C415.401 89.116 415.153 88.776 414.969 88.368C414.793 87.96 414.705 87.484 414.705 86.94C414.705 86.46 414.833 86 415.089 85.56C415.353 85.112 415.777 84.712 416.361 84.36C416.953 84.008 417.721 83.72 418.665 83.496C419.617 83.272 420.785 83.144 422.169 83.112V82.224C422.169 81.304 421.973 80.616 421.581 80.16C421.189 79.704 420.613 79.476 419.853 79.476C419.341 79.476 418.909 79.54 418.557 79.668C418.213 79.796 417.913 79.94 417.657 80.1C417.409 80.252 417.189 80.392 416.997 80.52C416.813 80.648 416.621 80.712 416.421 80.712C416.261 80.712 416.121 80.668 416.001 80.58C415.889 80.492 415.797 80.388 415.725 80.268L415.305 79.512ZM429.801 80.148C430.193 79.348 430.665 78.72 431.217 78.264C431.769 77.808 432.433 77.58 433.209 77.58C433.473 77.58 433.721 77.612 433.953 77.676C434.193 77.732 434.401 77.82 434.577 77.94L434.421 79.704C434.365 79.92 434.233 80.028 434.025 80.028C433.913 80.028 433.745 80.008 433.521 79.968C433.297 79.92 433.057 79.896 432.801 79.896C432.425 79.896 432.093 79.952 431.805 80.064C431.517 80.168 431.257 80.328 431.025 80.544C430.801 80.752 430.601 81.012 430.425 81.324C430.249 81.628 430.085 81.976 429.933 82.368V90H427.593V77.808H428.937C429.193 77.808 429.365 77.856 429.453 77.952C429.549 78.04 429.617 78.2 429.657 78.432L429.801 80.148ZM444.481 80.088C444.409 80.176 444.337 80.248 444.265 80.304C444.201 80.352 444.105 80.376 443.977 80.376C443.849 80.376 443.713 80.328 443.569 80.232C443.433 80.128 443.257 80.02 443.041 79.908C442.833 79.788 442.577 79.68 442.273 79.584C441.977 79.48 441.609 79.428 441.169 79.428C440.593 79.428 440.085 79.532 439.645 79.74C439.205 79.948 438.837 80.244 438.541 80.628C438.253 81.012 438.033 81.48 437.881 82.032C437.729 82.584 437.653 83.204 437.653 83.892C437.653 84.604 437.733 85.24 437.893 85.8C438.053 86.352 438.281 86.82 438.577 87.204C438.873 87.58 439.233 87.868 439.657 88.068C440.081 88.26 440.553 88.356 441.073 88.356C441.577 88.356 441.993 88.296 442.321 88.176C442.649 88.048 442.921 87.912 443.137 87.768C443.353 87.624 443.533 87.492 443.677 87.372C443.821 87.244 443.969 87.18 444.121 87.18C444.313 87.18 444.461 87.252 444.565 87.396L445.237 88.26C444.957 88.604 444.641 88.896 444.289 89.136C443.945 89.376 443.577 89.572 443.185 89.724C442.793 89.876 442.381 89.988 441.949 90.06C441.525 90.132 441.093 90.168 440.653 90.168C439.893 90.168 439.181 90.028 438.517 89.748C437.861 89.468 437.289 89.06 436.801 88.524C436.321 87.988 435.941 87.332 435.661 86.556C435.381 85.772 435.241 84.884 435.241 83.892C435.241 82.988 435.365 82.152 435.613 81.384C435.869 80.616 436.241 79.956 436.729 79.404C437.225 78.844 437.833 78.408 438.553 78.096C439.273 77.776 440.097 77.616 441.025 77.616C441.897 77.616 442.665 77.756 443.329 78.036C443.993 78.316 444.585 78.712 445.105 79.224L444.481 80.088ZM449.761 79.356C450.273 78.836 450.837 78.416 451.453 78.096C452.077 77.776 452.793 77.616 453.601 77.616C454.273 77.616 454.861 77.728 455.365 77.952C455.877 78.176 456.305 78.492 456.649 78.9C456.993 79.3 457.253 79.784 457.429 80.352C457.605 80.92 457.693 81.548 457.693 82.236V90H455.341V82.236C455.341 81.364 455.141 80.688 454.741 80.208C454.341 79.72 453.729 79.476 452.905 79.476C452.305 79.476 451.741 79.62 451.213 79.908C450.693 80.188 450.209 80.572 449.761 81.06V90H447.421V72.288H449.761V79.356Z" fill="#12152E" fill-opacity="0.8"/>
<path d="M520.098 258.768L513.09 276H510.798L503.79 258.768H505.83C506.054 258.768 506.234 258.824 506.37 258.936C506.514 259.048 506.622 259.192 506.694 259.368L511.35 271.08C511.462 271.368 511.57 271.684 511.674 272.028C511.786 272.372 511.886 272.732 511.974 273.108C512.054 272.732 512.142 272.372 512.238 272.028C512.334 271.684 512.438 271.368 512.55 271.08L517.194 259.368C517.25 259.208 517.35 259.068 517.494 258.948C517.646 258.828 517.83 258.768 518.046 258.768H520.098ZM526.54 270.588C525.588 270.62 524.78 270.696 524.116 270.816C523.452 270.928 522.912 271.08 522.496 271.272C522.08 271.464 521.78 271.692 521.596 271.956C521.412 272.212 521.32 272.5 521.32 272.82C521.32 273.124 521.368 273.388 521.464 273.612C521.568 273.828 521.704 274.008 521.872 274.152C522.048 274.288 522.252 274.388 522.484 274.452C522.716 274.516 522.968 274.548 523.24 274.548C523.6 274.548 523.928 274.512 524.224 274.44C524.528 274.368 524.812 274.268 525.076 274.14C525.34 274.004 525.592 273.84 525.832 273.648C526.072 273.456 526.308 273.236 526.54 272.988V270.588ZM519.676 265.512C520.356 264.864 521.092 264.38 521.884 264.06C522.684 263.74 523.56 263.58 524.512 263.58C525.208 263.58 525.824 263.696 526.36 263.928C526.896 264.152 527.348 264.468 527.716 264.876C528.084 265.284 528.36 265.772 528.544 266.34C528.736 266.908 528.832 267.536 528.832 268.224V276H527.788C527.556 276 527.38 275.964 527.26 275.892C527.14 275.812 527.044 275.668 526.972 275.46L526.72 274.392C526.408 274.68 526.1 274.936 525.796 275.16C525.492 275.376 525.172 275.564 524.836 275.724C524.508 275.876 524.156 275.992 523.78 276.072C523.404 276.152 522.988 276.192 522.532 276.192C522.052 276.192 521.6 276.128 521.176 276C520.76 275.864 520.396 275.66 520.084 275.388C519.772 275.116 519.524 274.776 519.34 274.368C519.164 273.96 519.076 273.484 519.076 272.94C519.076 272.46 519.204 272 519.46 271.56C519.724 271.112 520.148 270.712 520.732 270.36C521.324 270.008 522.092 269.72 523.036 269.496C523.988 269.272 525.156 269.144 526.54 269.112V268.224C526.54 267.304 526.344 266.616 525.952 266.16C525.56 265.704 524.984 265.476 524.224 265.476C523.712 265.476 523.28 265.54 522.928 265.668C522.584 265.796 522.284 265.94 522.028 266.1C521.78 266.252 521.56 266.392 521.368 266.52C521.184 266.648 520.992 266.712 520.792 266.712C520.632 266.712 520.492 266.668 520.372 266.58C520.26 266.492 520.168 266.388 520.096 266.268L519.676 265.512ZM534.364 258.288V276H532.012V258.288H534.364ZM540.155 263.808V276H537.815V263.808H540.155ZM540.599 260.04C540.599 260.256 540.555 260.464 540.467 260.664C540.379 260.856 540.259 261.028 540.107 261.18C539.963 261.324 539.791 261.44 539.59 261.528C539.391 261.608 539.183 261.648 538.967 261.648C538.751 261.648 538.547 261.608 538.355 261.528C538.163 261.44 537.991 261.324 537.839 261.18C537.695 261.028 537.579 260.856 537.491 260.664C537.411 260.464 537.371 260.256 537.371 260.04C537.371 259.816 537.411 259.608 537.491 259.416C537.579 259.216 537.695 259.044 537.839 258.9C537.991 258.748 538.163 258.632 538.355 258.552C538.547 258.464 538.751 258.42 538.967 258.42C539.183 258.42 539.391 258.464 539.59 258.552C539.791 258.632 539.963 258.748 540.107 258.9C540.259 259.044 540.379 259.216 540.467 259.416C540.555 259.608 540.599 259.816 540.599 260.04ZM551.402 266.76C551.018 266.256 550.602 265.904 550.154 265.704C549.714 265.504 549.218 265.404 548.666 265.404C547.594 265.404 546.762 265.792 546.17 266.568C545.586 267.336 545.294 268.46 545.294 269.94C545.294 270.716 545.358 271.38 545.486 271.932C545.622 272.476 545.814 272.924 546.062 273.276C546.318 273.62 546.63 273.876 546.998 274.044C547.366 274.204 547.782 274.284 548.246 274.284C548.926 274.284 549.514 274.132 550.01 273.828C550.506 273.524 550.97 273.096 551.402 272.544V266.76ZM553.754 258.288V276H552.338C552.01 276 551.806 275.844 551.726 275.532L551.522 274.128C551.002 274.744 550.41 275.24 549.746 275.616C549.09 275.984 548.33 276.168 547.466 276.168C546.77 276.168 546.138 276.032 545.57 275.76C545.01 275.488 544.53 275.092 544.13 274.572C543.73 274.044 543.422 273.392 543.206 272.616C542.99 271.84 542.882 270.948 542.882 269.94C542.882 269.036 543.002 268.196 543.242 267.42C543.482 266.644 543.83 265.972 544.286 265.404C544.742 264.836 545.294 264.392 545.942 264.072C546.59 263.744 547.322 263.58 548.138 263.58C548.874 263.58 549.498 263.7 550.01 263.94C550.53 264.18 550.994 264.52 551.402 264.96V258.288H553.754ZM563.571 270.588C562.619 270.62 561.811 270.696 561.147 270.816C560.483 270.928 559.943 271.08 559.527 271.272C559.111 271.464 558.811 271.692 558.627 271.956C558.443 272.212 558.351 272.5 558.351 272.82C558.351 273.124 558.399 273.388 558.495 273.612C558.599 273.828 558.735 274.008 558.903 274.152C559.079 274.288 559.283 274.388 559.515 274.452C559.747 274.516 559.999 274.548 560.271 274.548C560.631 274.548 560.959 274.512 561.255 274.44C561.559 274.368 561.843 274.268 562.107 274.14C562.371 274.004 562.623 273.84 562.863 273.648C563.103 273.456 563.339 273.236 563.571 272.988V270.588ZM556.707 265.512C557.387 264.864 558.123 264.38 558.915 264.06C559.715 263.74 560.591 263.58 561.543 263.58C562.239 263.58 562.855 263.696 563.391 263.928C563.927 264.152 564.379 264.468 564.747 264.876C565.115 265.284 565.391 265.772 565.575 266.34C565.767 266.908 565.863 267.536 565.863 268.224V276H564.819C564.587 276 564.411 275.964 564.291 275.892C564.171 275.812 564.075 275.668 564.003 275.46L563.751 274.392C563.439 274.68 563.131 274.936 562.827 275.16C562.523 275.376 562.203 275.564 561.867 275.724C561.539 275.876 561.187 275.992 560.811 276.072C560.435 276.152 560.019 276.192 559.563 276.192C559.083 276.192 558.631 276.128 558.207 276C557.791 275.864 557.427 275.66 557.115 275.388C556.803 275.116 556.555 274.776 556.371 274.368C556.195 273.96 556.107 273.484 556.107 272.94C556.107 272.46 556.235 272 556.491 271.56C556.755 271.112 557.179 270.712 557.763 270.36C558.355 270.008 559.123 269.72 560.067 269.496C561.019 269.272 562.187 269.144 563.571 269.112V268.224C563.571 267.304 563.375 266.616 562.983 266.16C562.591 265.704 562.015 265.476 561.255 265.476C560.743 265.476 560.311 265.54 559.959 265.668C559.615 265.796 559.315 265.94 559.059 266.1C558.811 266.252 558.591 266.392 558.399 266.52C558.215 266.648 558.023 266.712 557.823 266.712C557.663 266.712 557.523 266.668 557.403 266.58C557.291 266.492 557.199 266.388 557.127 266.268L556.707 265.512ZM580.388 276H578.036V265.704H571.916V272.844C571.916 273.324 572.032 273.684 572.264 273.924C572.504 274.156 572.808 274.272 573.176 274.272C573.392 274.272 573.576 274.244 573.728 274.188C573.888 274.132 574.024 274.072 574.136 274.008C574.248 273.936 574.344 273.872 574.424 273.816C574.504 273.76 574.576 273.732 574.64 273.732C574.72 273.732 574.78 273.752 574.82 273.792C574.868 273.824 574.916 273.88 574.964 273.96L575.66 275.088C575.276 275.44 574.82 275.712 574.292 275.904C573.764 276.096 573.216 276.192 572.648 276.192C571.664 276.192 570.904 275.916 570.368 275.364C569.84 274.812 569.576 274.024 569.576 273V265.704H568.16C568.024 265.704 567.908 265.664 567.812 265.584C567.724 265.496 567.68 265.368 567.68 265.2V264.252L569.672 263.976L570.188 260.34C570.22 260.204 570.28 260.1 570.368 260.028C570.464 259.948 570.584 259.908 570.728 259.908H571.916V264H580.388V276ZM580.916 259.968C580.916 260.184 580.872 260.392 580.784 260.592C580.696 260.784 580.576 260.956 580.424 261.108C580.28 261.252 580.108 261.368 579.908 261.456C579.708 261.536 579.5 261.576 579.284 261.576C579.068 261.576 578.864 261.536 578.672 261.456C578.48 261.368 578.308 261.252 578.156 261.108C578.012 260.956 577.896 260.784 577.808 260.592C577.728 260.392 577.688 260.184 577.688 259.968C577.688 259.744 577.728 259.532 577.808 259.332C577.896 259.132 578.012 258.96 578.156 258.816C578.308 258.664 578.48 258.548 578.672 258.468C578.864 258.38 579.068 258.336 579.284 258.336C579.5 258.336 579.708 258.38 579.908 258.468C580.108 258.548 580.28 258.664 580.424 258.816C580.576 258.96 580.696 259.132 580.784 259.332C580.872 259.532 580.916 259.744 580.916 259.968ZM588.981 263.616C589.877 263.616 590.685 263.764 591.405 264.06C592.133 264.348 592.749 264.768 593.253 265.32C593.765 265.864 594.157 266.524 594.429 267.3C594.701 268.068 594.837 268.932 594.837 269.892C594.837 270.852 594.701 271.72 594.429 272.496C594.157 273.272 593.765 273.932 593.253 274.476C592.749 275.02 592.133 275.44 591.405 275.736C590.685 276.024 589.877 276.168 588.981 276.168C588.077 276.168 587.261 276.024 586.533 275.736C585.813 275.44 585.197 275.02 584.685 274.476C584.173 273.932 583.777 273.272 583.497 272.496C583.225 271.72 583.089 270.852 583.089 269.892C583.089 268.932 583.225 268.068 583.497 267.3C583.777 266.524 584.173 265.864 584.685 265.32C585.197 264.768 585.813 264.348 586.533 264.06C587.261 263.764 588.077 263.616 588.981 263.616ZM588.981 274.344C590.133 274.344 590.993 273.956 591.561 273.18C592.129 272.404 592.413 271.312 592.413 269.904C592.413 268.496 592.129 267.404 591.561 266.628C590.993 265.844 590.133 265.452 588.981 265.452C587.813 265.452 586.941 265.844 586.365 266.628C585.797 267.404 585.513 268.496 585.513 269.904C585.513 271.312 585.797 272.404 586.365 273.18C586.941 273.956 587.813 274.344 588.981 274.344ZM599.645 265.5C599.909 265.22 600.185 264.964 600.473 264.732C600.761 264.5 601.065 264.304 601.385 264.144C601.713 263.976 602.061 263.848 602.429 263.76C602.805 263.664 603.205 263.616 603.629 263.616C604.301 263.616 604.889 263.728 605.393 263.952C605.905 264.176 606.333 264.492 606.677 264.9C607.021 265.3 607.281 265.784 607.457 266.352C607.633 266.92 607.721 267.548 607.721 268.236V276H605.369V268.236C605.369 267.364 605.169 266.688 604.769 266.208C604.369 265.72 603.757 265.476 602.933 265.476C602.333 265.476 601.769 265.62 601.241 265.908C600.721 266.188 600.237 266.572 599.789 267.06V276H597.449V263.808H598.853C599.181 263.808 599.385 263.964 599.465 264.276L599.645 265.5Z" fill="#12152E" fill-opacity="0.8"/>
<path d="M668.585 83.58L666.029 76.896C665.845 76.44 665.661 75.864 665.477 75.168C665.389 75.512 665.297 75.832 665.201 76.128C665.113 76.424 665.025 76.688 664.937 76.92L662.393 83.58H668.585ZM673.637 90H671.669C671.445 90 671.261 89.944 671.117 89.832C670.973 89.72 670.869 89.576 670.805 89.4L669.281 85.404H661.685L660.161 89.4C660.105 89.552 660.001 89.692 659.849 89.82C659.697 89.94 659.513 90 659.297 90H657.329L664.193 72.768H666.773L673.637 90ZM677.457 79.5C677.721 79.22 677.997 78.964 678.285 78.732C678.573 78.5 678.877 78.304 679.197 78.144C679.525 77.976 679.873 77.848 680.241 77.76C680.617 77.664 681.017 77.616 681.441 77.616C682.113 77.616 682.701 77.728 683.205 77.952C683.717 78.176 684.145 78.492 684.489 78.9C684.833 79.3 685.093 79.784 685.269 80.352C685.445 80.92 685.533 81.548 685.533 82.236V90H683.181V82.236C683.181 81.364 682.981 80.688 682.581 80.208C682.181 79.72 681.569 79.476 680.745 79.476C680.145 79.476 679.581 79.62 679.053 79.908C678.533 80.188 678.049 80.572 677.601 81.06V90H675.261V77.808H676.665C676.993 77.808 677.197 77.964 677.277 78.276L677.457 79.5ZM695.243 84.588C694.291 84.62 693.483 84.696 692.819 84.816C692.155 84.928 691.615 85.08 691.199 85.272C690.783 85.464 690.483 85.692 690.299 85.956C690.115 86.212 690.023 86.5 690.023 86.82C690.023 87.124 690.071 87.388 690.167 87.612C690.271 87.828 690.407 88.008 690.575 88.152C690.751 88.288 690.955 88.388 691.187 88.452C691.419 88.516 691.671 88.548 691.943 88.548C692.303 88.548 692.631 88.512 692.927 88.44C693.231 88.368 693.515 88.268 693.779 88.14C694.043 88.004 694.295 87.84 694.535 87.648C694.775 87.456 695.011 87.236 695.243 86.988V84.588ZM688.379 79.512C689.059 78.864 689.795 78.38 690.587 78.06C691.387 77.74 692.263 77.58 693.215 77.58C693.911 77.58 694.527 77.696 695.063 77.928C695.599 78.152 696.051 78.468 696.419 78.876C696.787 79.284 697.063 79.772 697.247 80.34C697.439 80.908 697.535 81.536 697.535 82.224V90H696.491C696.259 90 696.083 89.964 695.963 89.892C695.843 89.812 695.747 89.668 695.675 89.46L695.423 88.392C695.111 88.68 694.803 88.936 694.499 89.16C694.195 89.376 693.875 89.564 693.539 89.724C693.211 89.876 692.859 89.992 692.483 90.072C692.107 90.152 691.691 90.192 691.235 90.192C690.755 90.192 690.303 90.128 689.879 90C689.463 89.864 689.099 89.66 688.787 89.388C688.475 89.116 688.227 88.776 688.043 88.368C687.867 87.96 687.779 87.484 687.779 86.94C687.779 86.46 687.907 86 688.163 85.56C688.427 85.112 688.851 84.712 689.435 84.36C690.027 84.008 690.795 83.72 691.739 83.496C692.691 83.272 693.859 83.144 695.243 83.112V82.224C695.243 81.304 695.047 80.616 694.655 80.16C694.263 79.704 693.687 79.476 692.927 79.476C692.415 79.476 691.983 79.54 691.631 79.668C691.287 79.796 690.987 79.94 690.731 80.1C690.483 80.252 690.263 80.392 690.071 80.52C689.887 80.648 689.695 80.712 689.495 80.712C689.335 80.712 689.195 80.668 689.075 80.58C688.963 80.492 688.871 80.388 688.799 80.268L688.379 79.512ZM703.067 72.288V90H700.715V72.288H703.067ZM717.066 77.808L710.298 93.54C710.226 93.716 710.13 93.852 710.01 93.948C709.89 94.044 709.714 94.092 709.482 94.092H707.742L709.974 89.232L704.97 77.808H707.01C707.21 77.808 707.366 77.856 707.478 77.952C707.59 78.048 707.67 78.156 707.718 78.276L710.814 85.596C710.878 85.78 710.938 85.968 710.994 86.16C711.058 86.344 711.11 86.528 711.15 86.712C711.206 86.52 711.266 86.332 711.33 86.148C711.394 85.956 711.462 85.768 711.534 85.584L714.522 78.276C714.578 78.14 714.666 78.028 714.786 77.94C714.906 77.852 715.042 77.808 715.194 77.808H717.066ZM725.832 79.908C725.768 80.012 725.7 80.088 725.628 80.136C725.556 80.176 725.464 80.196 725.352 80.196C725.224 80.196 725.08 80.152 724.92 80.064C724.768 79.976 724.58 79.88 724.356 79.776C724.14 79.672 723.884 79.576 723.588 79.488C723.292 79.4 722.94 79.356 722.532 79.356C722.196 79.356 721.888 79.4 721.608 79.488C721.336 79.568 721.104 79.684 720.912 79.836C720.72 79.98 720.572 80.156 720.468 80.364C720.364 80.564 720.312 80.78 720.312 81.012C720.312 81.316 720.4 81.568 720.576 81.768C720.76 81.968 720.996 82.14 721.284 82.284C721.58 82.428 721.912 82.56 722.28 82.68C722.656 82.792 723.036 82.912 723.42 83.04C723.812 83.168 724.192 83.316 724.56 83.484C724.936 83.644 725.268 83.848 725.556 84.096C725.852 84.336 726.088 84.628 726.264 84.972C726.448 85.316 726.54 85.736 726.54 86.232C726.54 86.8 726.436 87.328 726.228 87.816C726.028 88.296 725.728 88.712 725.328 89.064C724.936 89.416 724.448 89.692 723.864 89.892C723.28 90.092 722.612 90.192 721.86 90.192C721.02 90.192 720.244 90.052 719.532 89.772C718.82 89.492 718.224 89.136 717.744 88.704L718.296 87.804C718.36 87.692 718.44 87.608 718.536 87.552C718.632 87.488 718.76 87.456 718.92 87.456C719.072 87.456 719.228 87.512 719.388 87.624C719.548 87.736 719.74 87.86 719.964 87.996C720.188 88.124 720.46 88.244 720.78 88.356C721.1 88.46 721.5 88.512 721.98 88.512C722.38 88.512 722.728 88.464 723.024 88.368C723.32 88.264 723.564 88.128 723.756 87.96C723.956 87.784 724.104 87.584 724.2 87.36C724.296 87.136 724.344 86.9 724.344 86.652C724.344 86.332 724.252 86.068 724.068 85.86C723.892 85.644 723.656 85.46 723.36 85.308C723.072 85.156 722.74 85.024 722.364 84.912C721.988 84.8 721.604 84.68 721.212 84.552C720.82 84.424 720.436 84.276 720.06 84.108C719.684 83.94 719.348 83.728 719.052 83.472C718.764 83.216 718.528 82.904 718.344 82.536C718.168 82.168 718.08 81.72 718.08 81.192C718.08 80.72 718.176 80.268 718.368 79.836C718.568 79.404 718.852 79.024 719.22 78.696C719.596 78.368 720.056 78.108 720.6 77.916C721.152 77.716 721.78 77.616 722.484 77.616C723.292 77.616 724.02 77.744 724.668 78C725.324 78.256 725.884 78.608 726.348 79.056L725.832 79.908ZM731.522 77.808V90H729.182V77.808H731.522ZM731.966 74.04C731.966 74.256 731.922 74.464 731.834 74.664C731.746 74.856 731.626 75.028 731.474 75.18C731.33 75.324 731.158 75.44 730.958 75.528C730.758 75.608 730.55 75.648 730.334 75.648C730.118 75.648 729.914 75.608 729.722 75.528C729.53 75.44 729.358 75.324 729.206 75.18C729.062 75.028 728.946 74.856 728.858 74.664C728.778 74.464 728.738 74.256 728.738 74.04C728.738 73.816 728.778 73.608 728.858 73.416C728.946 73.216 729.062 73.044 729.206 72.9C729.358 72.748 729.53 72.632 729.722 72.552C729.914 72.464 730.118 72.42 730.334 72.42C730.55 72.42 730.758 72.464 730.958 72.552C731.158 72.632 731.33 72.748 731.474 72.9C731.626 73.044 731.746 73.216 731.834 73.416C731.922 73.608 731.966 73.816 731.966 74.04ZM742.098 79.908C742.034 80.012 741.966 80.088 741.894 80.136C741.822 80.176 741.73 80.196 741.618 80.196C741.49 80.196 741.346 80.152 741.186 80.064C741.034 79.976 740.846 79.88 740.622 79.776C740.406 79.672 740.15 79.576 739.854 79.488C739.558 79.4 739.206 79.356 738.798 79.356C738.462 79.356 738.154 79.4 737.874 79.488C737.602 79.568 737.37 79.684 737.178 79.836C736.986 79.98 736.838 80.156 736.734 80.364C736.63 80.564 736.578 80.78 736.578 81.012C736.578 81.316 736.666 81.568 736.842 81.768C737.026 81.968 737.262 82.14 737.55 82.284C737.846 82.428 738.178 82.56 738.546 82.68C738.922 82.792 739.302 82.912 739.686 83.04C740.078 83.168 740.458 83.316 740.826 83.484C741.202 83.644 741.534 83.848 741.822 84.096C742.118 84.336 742.354 84.628 742.53 84.972C742.714 85.316 742.806 85.736 742.806 86.232C742.806 86.8 742.702 87.328 742.494 87.816C742.294 88.296 741.994 88.712 741.594 89.064C741.202 89.416 740.714 89.692 740.13 89.892C739.546 90.092 738.878 90.192 738.126 90.192C737.286 90.192 736.51 90.052 735.798 89.772C735.086 89.492 734.49 89.136 734.01 88.704L734.562 87.804C734.626 87.692 734.706 87.608 734.802 87.552C734.898 87.488 735.026 87.456 735.186 87.456C735.338 87.456 735.494 87.512 735.654 87.624C735.814 87.736 736.006 87.86 736.23 87.996C736.454 88.124 736.726 88.244 737.046 88.356C737.366 88.46 737.766 88.512 738.246 88.512C738.646 88.512 738.994 88.464 739.29 88.368C739.586 88.264 739.83 88.128 740.022 87.96C740.222 87.784 740.37 87.584 740.466 87.36C740.562 87.136 740.61 86.9 740.61 86.652C740.61 86.332 740.518 86.068 740.334 85.86C740.158 85.644 739.922 85.46 739.626 85.308C739.338 85.156 739.006 85.024 738.63 84.912C738.254 84.8 737.87 84.68 737.478 84.552C737.086 84.424 736.702 84.276 736.326 84.108C735.95 83.94 735.614 83.728 735.318 83.472C735.03 83.216 734.794 82.904 734.61 82.536C734.434 82.168 734.346 81.72 734.346 81.192C734.346 80.72 734.442 80.268 734.634 79.836C734.834 79.404 735.118 79.024 735.486 78.696C735.862 78.368 736.322 78.108 736.866 77.916C737.418 77.716 738.046 77.616 738.75 77.616C739.558 77.616 740.286 77.744 740.934 78C741.59 78.256 742.15 78.608 742.614 79.056L742.098 79.908Z" fill="#12152E" fill-opacity="0.8"/>
<path d="M971.144 81.384C971.144 82.672 970.936 83.844 970.52 84.9C970.112 85.956 969.532 86.864 968.78 87.624C968.028 88.376 967.128 88.96 966.08 89.376C965.032 89.792 963.868 90 962.588 90H956.108V72.768H962.588C963.868 72.768 965.032 72.976 966.08 73.392C967.128 73.808 968.028 74.396 968.78 75.156C969.532 75.908 970.112 76.816 970.52 77.88C970.936 78.936 971.144 80.104 971.144 81.384ZM968.528 81.384C968.528 80.36 968.388 79.444 968.108 78.636C967.828 77.82 967.428 77.132 966.908 76.572C966.396 76.004 965.772 75.572 965.036 75.276C964.308 74.98 963.492 74.832 962.588 74.832H958.676V87.936H962.588C963.492 87.936 964.308 87.788 965.036 87.492C965.772 87.196 966.396 86.768 966.908 86.208C967.428 85.64 967.828 84.952 968.108 84.144C968.388 83.336 968.528 82.416 968.528 81.384ZM981.798 82.548C981.798 82.084 981.73 81.656 981.594 81.264C981.466 80.872 981.274 80.532 981.018 80.244C980.762 79.956 980.45 79.732 980.082 79.572C979.714 79.412 979.29 79.332 978.81 79.332C977.826 79.332 977.05 79.616 976.482 80.184C975.922 80.752 975.566 81.54 975.414 82.548H981.798ZM983.73 88.26C983.442 88.596 983.11 88.888 982.734 89.136C982.358 89.376 981.958 89.572 981.534 89.724C981.11 89.876 980.67 89.988 980.214 90.06C979.766 90.132 979.322 90.168 978.882 90.168C978.042 90.168 977.262 90.028 976.542 89.748C975.83 89.46 975.21 89.044 974.682 88.5C974.162 87.948 973.754 87.268 973.458 86.46C973.17 85.644 973.026 84.708 973.026 83.652C973.026 82.804 973.158 82.016 973.422 81.288C973.686 80.552 974.062 79.912 974.55 79.368C975.046 78.824 975.65 78.396 976.362 78.084C977.074 77.772 977.874 77.616 978.762 77.616C979.506 77.616 980.19 77.74 980.814 77.988C981.446 78.228 981.99 78.58 982.446 79.044C982.902 79.508 983.258 80.08 983.514 80.76C983.778 81.44 983.91 82.216 983.91 83.088C983.91 83.448 983.87 83.692 983.79 83.82C983.71 83.94 983.562 84 983.346 84H975.354C975.378 84.728 975.482 85.364 975.666 85.908C975.85 86.444 976.102 86.892 976.422 87.252C976.75 87.612 977.138 87.88 977.586 88.056C978.034 88.232 978.534 88.32 979.086 88.32C979.606 88.32 980.054 88.26 980.43 88.14C980.814 88.02 981.142 87.892 981.414 87.756C981.694 87.612 981.926 87.48 982.11 87.36C982.302 87.24 982.47 87.18 982.614 87.18C982.806 87.18 982.954 87.252 983.058 87.396L983.73 88.26ZM993.613 79.908C993.549 80.012 993.481 80.088 993.409 80.136C993.337 80.176 993.245 80.196 993.133 80.196C993.005 80.196 992.861 80.152 992.701 80.064C992.549 79.976 992.361 79.88 992.137 79.776C991.921 79.672 991.665 79.576 991.369 79.488C991.073 79.4 990.721 79.356 990.313 79.356C989.977 79.356 989.669 79.4 989.389 79.488C989.117 79.568 988.885 79.684 988.693 79.836C988.501 79.98 988.353 80.156 988.249 80.364C988.145 80.564 988.093 80.78 988.093 81.012C988.093 81.316 988.181 81.568 988.357 81.768C988.541 81.968 988.777 82.14 989.065 82.284C989.361 82.428 989.693 82.56 990.061 82.68C990.437 82.792 990.817 82.912 991.201 83.04C991.593 83.168 991.973 83.316 992.341 83.484C992.717 83.644 993.049 83.848 993.337 84.096C993.633 84.336 993.869 84.628 994.045 84.972C994.229 85.316 994.321 85.736 994.321 86.232C994.321 86.8 994.217 87.328 994.009 87.816C993.809 88.296 993.509 88.712 993.109 89.064C992.717 89.416 992.229 89.692 991.645 89.892C991.061 90.092 990.393 90.192 989.641 90.192C988.801 90.192 988.025 90.052 987.313 89.772C986.601 89.492 986.005 89.136 985.525 88.704L986.077 87.804C986.141 87.692 986.221 87.608 986.317 87.552C986.413 87.488 986.541 87.456 986.701 87.456C986.853 87.456 987.009 87.512 987.169 87.624C987.329 87.736 987.521 87.86 987.745 87.996C987.969 88.124 988.241 88.244 988.561 88.356C988.881 88.46 989.281 88.512 989.761 88.512C990.161 88.512 990.509 88.464 990.805 88.368C991.101 88.264 991.345 88.128 991.537 87.96C991.737 87.784 991.885 87.584 991.981 87.36C992.077 87.136 992.125 86.9 992.125 86.652C992.125 86.332 992.033 86.068 991.849 85.86C991.673 85.644 991.437 85.46 991.141 85.308C990.853 85.156 990.521 85.024 990.145 84.912C989.769 84.8 989.385 84.68 988.993 84.552C988.601 84.424 988.217 84.276 987.841 84.108C987.465 83.94 987.129 83.728 986.833 83.472C986.545 83.216 986.309 82.904 986.125 82.536C985.949 82.168 985.861 81.72 985.861 81.192C985.861 80.72 985.957 80.268 986.149 79.836C986.349 79.404 986.633 79.024 987.001 78.696C987.377 78.368 987.837 78.108 988.381 77.916C988.933 77.716 989.561 77.616 990.265 77.616C991.073 77.616 991.801 77.744 992.449 78C993.105 78.256 993.665 78.608 994.129 79.056L993.613 79.908ZM999.303 77.808V90H996.963V77.808H999.303ZM999.747 74.04C999.747 74.256 999.703 74.464 999.615 74.664C999.527 74.856 999.407 75.028 999.255 75.18C999.111 75.324 998.939 75.44 998.739 75.528C998.539 75.608 998.331 75.648 998.115 75.648C997.899 75.648 997.695 75.608 997.503 75.528C997.311 75.44 997.139 75.324 996.987 75.18C996.843 75.028 996.727 74.856 996.639 74.664C996.559 74.464 996.519 74.256 996.519 74.04C996.519 73.816 996.559 73.608 996.639 73.416C996.727 73.216 996.843 73.044 996.987 72.9C997.139 72.748 997.311 72.632 997.503 72.552C997.695 72.464 997.899 72.42 998.115 72.42C998.331 72.42 998.539 72.464 998.739 72.552C998.939 72.632 999.111 72.748 999.255 72.9C999.407 73.044 999.527 73.216 999.615 73.416C999.703 73.608 999.747 73.816 999.747 74.04ZM1006.97 83.916C1007.39 83.916 1007.75 83.86 1008.07 83.748C1008.39 83.636 1008.65 83.48 1008.86 83.28C1009.07 83.072 1009.23 82.824 1009.34 82.536C1009.45 82.248 1009.51 81.932 1009.51 81.588C1009.51 80.884 1009.29 80.324 1008.86 79.908C1008.43 79.484 1007.81 79.272 1006.97 79.272C1006.15 79.272 1005.52 79.484 1005.09 79.908C1004.67 80.324 1004.45 80.884 1004.45 81.588C1004.45 81.932 1004.51 82.248 1004.61 82.536C1004.72 82.816 1004.88 83.06 1005.09 83.268C1005.31 83.468 1005.57 83.628 1005.88 83.748C1006.2 83.86 1006.57 83.916 1006.97 83.916ZM1010.71 90.636C1010.71 90.348 1010.63 90.12 1010.47 89.952C1010.31 89.776 1010.09 89.64 1009.81 89.544C1009.53 89.44 1009.21 89.368 1008.85 89.328C1008.48 89.28 1008.09 89.244 1007.68 89.22C1007.28 89.196 1006.87 89.176 1006.45 89.16C1006.02 89.136 1005.61 89.096 1005.22 89.04C1004.81 89.248 1004.46 89.5 1004.19 89.796C1003.93 90.092 1003.79 90.44 1003.79 90.84C1003.79 91.096 1003.86 91.336 1003.99 91.56C1004.12 91.784 1004.33 91.976 1004.6 92.136C1004.88 92.304 1005.23 92.432 1005.64 92.52C1006.07 92.616 1006.57 92.664 1007.15 92.664C1007.73 92.664 1008.24 92.612 1008.68 92.508C1009.12 92.412 1009.49 92.272 1009.78 92.088C1010.09 91.912 1010.31 91.7 1010.47 91.452C1010.63 91.204 1010.71 90.932 1010.71 90.636ZM1013.08 78.264V79.14C1013.08 79.428 1012.9 79.608 1012.54 79.68L1011.23 79.872C1011.35 80.12 1011.43 80.384 1011.5 80.664C1011.56 80.936 1011.59 81.224 1011.59 81.528C1011.59 82.128 1011.48 82.672 1011.25 83.16C1011.01 83.64 1010.69 84.052 1010.29 84.396C1009.88 84.74 1009.39 85.004 1008.82 85.188C1008.26 85.372 1007.65 85.464 1006.97 85.464C1006.42 85.464 1005.91 85.404 1005.43 85.284C1005.19 85.428 1005 85.588 1004.87 85.764C1004.75 85.932 1004.69 86.1 1004.69 86.268C1004.69 86.548 1004.81 86.756 1005.04 86.892C1005.28 87.028 1005.59 87.128 1005.97 87.192C1006.35 87.248 1006.79 87.284 1007.27 87.3C1007.77 87.316 1008.27 87.344 1008.77 87.384C1009.29 87.416 1009.79 87.48 1010.27 87.576C1010.77 87.664 1011.21 87.812 1011.58 88.02C1011.97 88.22 1012.27 88.5 1012.51 88.86C1012.75 89.212 1012.87 89.672 1012.87 90.24C1012.87 90.768 1012.73 91.28 1012.47 91.776C1012.21 92.272 1011.84 92.712 1011.34 93.096C1010.85 93.48 1010.24 93.788 1009.53 94.02C1008.82 94.252 1008.01 94.368 1007.11 94.368C1006.2 94.368 1005.41 94.28 1004.74 94.104C1004.08 93.928 1003.52 93.692 1003.07 93.396C1002.63 93.1 1002.3 92.756 1002.08 92.364C1001.86 91.972 1001.75 91.564 1001.75 91.14C1001.75 90.548 1001.94 90.048 1002.31 89.64C1002.67 89.224 1003.18 88.9 1003.83 88.668C1003.48 88.508 1003.2 88.292 1002.99 88.02C1002.78 87.74 1002.68 87.372 1002.68 86.916C1002.68 86.74 1002.71 86.56 1002.77 86.376C1002.84 86.184 1002.93 85.996 1003.06 85.812C1003.2 85.62 1003.36 85.44 1003.55 85.272C1003.75 85.104 1003.98 84.952 1004.24 84.816C1003.64 84.48 1003.17 84.036 1002.82 83.484C1002.48 82.924 1002.31 82.272 1002.31 81.528C1002.31 80.928 1002.42 80.388 1002.65 79.908C1002.89 79.428 1003.21 79.016 1003.61 78.672C1004.03 78.328 1004.52 78.064 1005.09 77.88C1005.67 77.696 1006.29 77.604 1006.97 77.604C1008.03 77.604 1008.94 77.824 1009.7 78.264H1013.08ZM1017.43 79.5C1017.69 79.22 1017.97 78.964 1018.25 78.732C1018.54 78.5 1018.85 78.304 1019.17 78.144C1019.49 77.976 1019.84 77.848 1020.21 77.76C1020.59 77.664 1020.99 77.616 1021.41 77.616C1022.08 77.616 1022.67 77.728 1023.17 77.952C1023.69 78.176 1024.11 78.492 1024.46 78.9C1024.8 79.3 1025.06 79.784 1025.24 80.352C1025.41 80.92 1025.5 81.548 1025.5 82.236V90H1023.15V82.236C1023.15 81.364 1022.95 80.688 1022.55 80.208C1022.15 79.72 1021.54 79.476 1020.71 79.476C1020.11 79.476 1019.55 79.62 1019.02 79.908C1018.5 80.188 1018.02 80.572 1017.57 81.06V90H1015.23V77.808H1016.63C1016.96 77.808 1017.17 77.964 1017.25 78.276L1017.43 79.5Z" fill="#12152E" fill-opacity="0.8"/>
<path d="M223 83C222.448 83 222 83.4477 222 84C222 84.5523 222.448 85 223 85V84V83ZM308.707 84.7071C309.098 84.3166 309.098 83.6834 308.707 83.2929L302.343 76.9289C301.953 76.5384 301.319 76.5384 300.929 76.9289C300.538 77.3195 300.538 77.9526 300.929 78.3431L306.586 84L300.929 89.6569C300.538 90.0474 300.538 90.6805 300.929 91.0711C301.319 91.4616 301.953 91.4616 302.343 91.0711L308.707 84.7071ZM223 84V85H308V84V83H223V84Z" fill="#5A67D8"/>
<rect x="261" y="74" width="10" height="20" rx="2" fill="#5A67D8"/>
<path d="M514 83C513.448 83 513 83.4477 513 84C513 84.5523 513.448 85 514 85V84V83ZM599.707 84.7071C600.098 84.3166 600.098 83.6834 599.707 83.2929L593.343 76.9289C592.953 76.5384 592.319 76.5384 591.929 76.9289C591.538 77.3195 591.538 77.9526 591.929 78.3431L597.586 84L591.929 89.6569C591.538 90.0474 591.538 90.6805 591.929 91.0711C592.319 91.4616 592.953 91.4616 593.343 91.0711L599.707 84.7071ZM514 84V85H599V84V83H514V84Z" fill="#5A67D8"/>
<rect x="552" y="74" width="10" height="20" rx="2" fill="#5A67D8"/>
<path d="M804 83C803.448 83 803 83.4477 803 84C803 84.5523 803.448 85 804 85V84V83ZM889.707 84.7071C890.098 84.3166 890.098 83.6834 889.707 83.2929L883.343 76.9289C882.953 76.5384 882.319 76.5384 881.929 76.9289C881.538 77.3195 881.538 77.9526 881.929 78.3431L887.586 84L881.929 89.6569C881.538 90.0474 881.538 90.6805 881.929 91.0711C882.319 91.4616 882.953 91.4616 883.343 91.0711L889.707 84.7071ZM804 84V85H889V84V83H804V84Z" fill="#5A67D8"/>
<rect x="842" y="74" width="10" height="20" rx="2" fill="#5A67D8"/>
<path d="M804.301 267.4L809.301 270.287L809.301 264.513L804.301 267.4ZM855.5 177.4L856 177.4L855.5 177.4ZM858.5 174.4L858.5 173.9L858.5 174.4ZM852.5 267.401L852.5 267.901L852.5 267.401ZM855.5 264.401L856 264.401L855.5 264.401ZM852.5 267.401L852.5 266.901L808.801 266.9L808.801 267.4L808.801 267.9L852.5 267.901L852.5 267.401ZM855.5 177.4L855 177.4L855 264.401L855.5 264.401L856 264.401L856 177.4L855.5 177.4ZM969.301 143.4L968.801 143.4L968.801 171.4L969.301 171.4L969.801 171.4L969.801 143.4L969.301 143.4ZM966.301 174.4L966.301 173.9L858.5 173.9L858.5 174.4L858.5 174.9L966.301 174.9L966.301 174.4ZM969.301 171.4L968.801 171.4C968.801 172.78 967.682 173.9 966.301 173.9L966.301 174.4L966.301 174.9C968.234 174.9 969.801 173.333 969.801 171.4L969.301 171.4ZM855.5 177.4L856 177.4C856 176.019 857.119 174.9 858.5 174.9L858.5 174.4L858.5 173.9C856.567 173.9 855 175.467 855 177.4L855.5 177.4ZM852.5 267.401L852.5 267.901C854.433 267.901 856 266.334 856 264.401L855.5 264.401L855 264.401C855 265.781 853.881 266.901 852.5 266.901L852.5 267.401Z" fill="#5A67D8" fill-opacity="0.2"/>
<path d="M136.283 144.5L133.396 149.5L139.169 149.5L136.283 144.5ZM251.5 266.587L251 266.587L251 267.087L251.5 267.087L251.5 266.587ZM251.5 178.087L252 178.087L252 177.587L251.5 177.587L251.5 178.087ZM136.283 178.087L135.783 178.087L135.783 178.587L136.283 178.587L136.283 178.087ZM251.5 266.587L251.5 267.087L308.283 267.087L308.283 266.587L308.283 266.087L251.5 266.087L251.5 266.587ZM251.5 178.087L251 178.087L251 266.587L251.5 266.587L252 266.587L252 178.087L251.5 178.087ZM136.283 149L135.783 149L135.783 178.087L136.283 178.087L136.783 178.087L136.783 149L136.283 149ZM136.283 178.087L136.283 178.587L251.5 178.587L251.5 178.087L251.5 177.587L136.283 177.587L136.283 178.087Z" fill="#5A67D8" fill-opacity="0.2"/>
<defs>
<filter id="filter0_d_1_1666" x="0" y="0" width="250" height="170" filterUnits="userSpaceOnUse" color-interpolation-filters="sRGB">
<feFlood flood-opacity="0" result="BackgroundImageFix"/>
<feColorMatrix in="SourceAlpha" type="matrix" values="0 0 0 0 0 0 0 0 0 0 0 0 0 0 0 0 0 0 127 0" result="hardAlpha"/>
<feOffset dx="4" dy="4"/>
<feGaussianBlur stdDeviation="12.5"/>
<feComposite in2="hardAlpha" operator="out"/>
<feColorMatrix type="matrix" values="0 0 0 0 0.352941 0 0 0 0 0.403922 0 0 0 0 0.847059 0 0 0 0.15 0"/>
<feBlend mode="normal" in2="BackgroundImageFix" result="effect1_dropShadow_1_1666"/>
<feBlend mode="normal" in="SourceGraphic" in2="effect1_dropShadow_1_1666" result="shape"/>
</filter>
<filter id="filter1_d_1_1666" x="0" y="187" width="250" height="170" filterUnits="userSpaceOnUse" color-interpolation-filters="sRGB">
<feFlood flood-opacity="0" result="BackgroundImageFix"/>
<feColorMatrix in="SourceAlpha" type="matrix" values="0 0 0 0 0 0 0 0 0 0 0 0 0 0 0 0 0 0 127 0" result="hardAlpha"/>
<feOffset dx="4" dy="4"/>
<feGaussianBlur stdDeviation="12.5"/>
<feComposite in2="hardAlpha" operator="out"/>
<feColorMatrix type="matrix" values="0 0 0 0 0.352941 0 0 0 0 0.403922 0 0 0 0 0.847059 0 0 0 0.2 0"/>
<feBlend mode="normal" in2="BackgroundImageFix" result="effect1_dropShadow_1_1666"/>
<feBlend mode="normal" in="SourceGraphic" in2="effect1_dropShadow_1_1666" result="shape"/>
</filter>
<filter id="filter2_d_1_1666" x="290" y="0" width="250" height="170" filterUnits="userSpaceOnUse" color-interpolation-filters="sRGB">
<feFlood flood-opacity="0" result="BackgroundImageFix"/>
<feColorMatrix in="SourceAlpha" type="matrix" values="0 0 0 0 0 0 0 0 0 0 0 0 0 0 0 0 0 0 127 0" result="hardAlpha"/>
<feOffset dx="4" dy="4"/>
<feGaussianBlur stdDeviation="12.5"/>
<feComposite in2="hardAlpha" operator="out"/>
<feColorMatrix type="matrix" values="0 0 0 0 0.352941 0 0 0 0 0.403922 0 0 0 0 0.847059 0 0 0 0.15 0"/>
<feBlend mode="normal" in2="BackgroundImageFix" result="effect1_dropShadow_1_1666"/>
<feBlend mode="normal" in="SourceGraphic" in2="effect1_dropShadow_1_1666" result="shape"/>
</filter>
<filter id="filter3_d_1_1666" x="580" y="0" width="250" height="170" filterUnits="userSpaceOnUse" color-interpolation-filters="sRGB">
<feFlood flood-opacity="0" result="BackgroundImageFix"/>
<feColorMatrix in="SourceAlpha" type="matrix" values="0 0 0 0 0 0 0 0 0 0 0 0 0 0 0 0 0 0 127 0" result="hardAlpha"/>
<feOffset dx="4" dy="4"/>
<feGaussianBlur stdDeviation="12.5"/>
<feComposite in2="hardAlpha" operator="out"/>
<feColorMatrix type="matrix" values="0 0 0 0 0.352941 0 0 0 0 0.403922 0 0 0 0 0.847059 0 0 0 0.15 0"/>
<feBlend mode="normal" in2="BackgroundImageFix" result="effect1_dropShadow_1_1666"/>
<feBlend mode="normal" in="SourceGraphic" in2="effect1_dropShadow_1_1666" result="shape"/>
</filter>
<filter id="filter4_d_1_1666" x="290" y="187" width="540" height="170" filterUnits="userSpaceOnUse" color-interpolation-filters="sRGB">
<feFlood flood-opacity="0" result="BackgroundImageFix"/>
<feColorMatrix in="SourceAlpha" type="matrix" values="0 0 0 0 0 0 0 0 0 0 0 0 0 0 0 0 0 0 127 0" result="hardAlpha"/>
<feOffset dx="4" dy="4"/>
<feGaussianBlur stdDeviation="12.5"/>
<feComposite in2="hardAlpha" operator="out"/>
<feColorMatrix type="matrix" values="0 0 0 0 0.352941 0 0 0 0 0.403922 0 0 0 0 0.847059 0 0 0 0.15 0"/>
<feBlend mode="normal" in2="BackgroundImageFix" result="effect1_dropShadow_1_1666"/>
<feBlend mode="normal" in="SourceGraphic" in2="effect1_dropShadow_1_1666" result="shape"/>
</filter>
<filter id="filter5_d_1_1666" x="870" y="0" width="250" height="170" filterUnits="userSpaceOnUse" color-interpolation-filters="sRGB">
<feFlood flood-opacity="0" result="BackgroundImageFix"/>
<feColorMatrix in="SourceAlpha" type="matrix" values="0 0 0 0 0 0 0 0 0 0 0 0 0 0 0 0 0 0 127 0" result="hardAlpha"/>
<feOffset dx="4" dy="4"/>
<feGaussianBlur stdDeviation="12.5"/>
<feComposite in2="hardAlpha" operator="out"/>
<feColorMatrix type="matrix" values="0 0 0 0 0.352941 0 0 0 0 0.403922 0 0 0 0 0.847059 0 0 0 0.15 0"/>
<feBlend mode="normal" in2="BackgroundImageFix" result="effect1_dropShadow_1_1666"/>
<feBlend mode="normal" in="SourceGraphic" in2="effect1_dropShadow_1_1666" result="shape"/>
</filter>
<filter id="filter6_d_1_1666" x="870" y="187" width="250" height="170" filterUnits="userSpaceOnUse" color-interpolation-filters="sRGB">
<feFlood flood-opacity="0" result="BackgroundImageFix"/>
<feColorMatrix in="SourceAlpha" type="matrix" values="0 0 0 0 0 0 0 0 0 0 0 0 0 0 0 0 0 0 127 0" result="hardAlpha"/>
<feOffset dx="4" dy="4"/>
<feGaussianBlur stdDeviation="12.5"/>
<feComposite in2="hardAlpha" operator="out"/>
<feColorMatrix type="matrix" values="0 0 0 0 0.352941 0 0 0 0 0.403922 0 0 0 0 0.847059 0 0 0 0.2 0"/>
<feBlend mode="normal" in2="BackgroundImageFix" result="effect1_dropShadow_1_1666"/>
<feBlend mode="normal" in="SourceGraphic" in2="effect1_dropShadow_1_1666" result="shape"/>
</filter>
</defs>
</svg>
