<svg width="212" height="50" viewBox="0 0 212 50" fill="none" xmlns="http://www.w3.org/2000/svg">
<path d="M76.42 14.5H67.7V39H62.32V14.5H53.6V10.08H76.42V14.5ZM84.3491 18.48V39H79.3891V18.48H84.3491ZM85.0291 12.5C85.0291 12.9267 84.9424 13.3267 84.7691 13.7C84.5957 14.0733 84.3624 14.4 84.0691 14.68C83.7891 14.96 83.4557 15.1867 83.0691 15.36C82.6824 15.52 82.2691 15.6 81.8291 15.6C81.4024 15.6 80.9957 15.52 80.6091 15.36C80.2357 15.1867 79.9091 14.96 79.6291 14.68C79.3491 14.4 79.1224 14.0733 78.9491 13.7C78.7891 13.3267 78.7091 12.9267 78.7091 12.5C78.7091 12.06 78.7891 11.6467 78.9491 11.26C79.1224 10.8733 79.3491 10.54 79.6291 10.26C79.9091 9.98 80.2357 9.76 80.6091 9.6C80.9957 9.42667 81.4024 9.34 81.8291 9.34C82.2691 9.34 82.6824 9.42667 83.0691 9.6C83.4557 9.76 83.7891 9.98 84.0691 10.26C84.3624 10.54 84.5957 10.8733 84.7691 11.26C84.9424 11.6467 85.0291 12.06 85.0291 12.5ZM94.0053 21C94.4186 20.5867 94.852 20.2067 95.3053 19.86C95.772 19.5 96.2586 19.2 96.7653 18.96C97.2853 18.7067 97.8386 18.5133 98.4253 18.38C99.012 18.2333 99.652 18.16 100.345 18.16C101.465 18.16 102.459 18.3533 103.325 18.74C104.192 19.1133 104.912 19.6467 105.485 20.34C106.072 21.02 106.512 21.84 106.805 22.8C107.112 23.7467 107.265 24.7933 107.265 25.94V39H102.325V25.94C102.325 24.6867 102.039 23.72 101.465 23.04C100.892 22.3467 100.019 22 98.8453 22C97.992 22 97.192 22.1933 96.4453 22.58C95.6986 22.9667 94.992 23.4933 94.3253 24.16V39H89.3853V18.48H92.4053C93.0453 18.48 93.4653 18.78 93.6653 19.38L94.0053 21ZM124.843 23.72C124.297 23.04 123.69 22.56 123.023 22.28C122.357 22 121.643 21.86 120.883 21.86C120.137 21.86 119.463 22 118.863 22.28C118.263 22.56 117.75 22.9867 117.323 23.56C116.897 24.12 116.57 24.84 116.343 25.72C116.117 26.5867 116.003 27.6133 116.003 28.8C116.003 30 116.097 31.02 116.283 31.86C116.483 32.6867 116.763 33.3667 117.123 33.9C117.483 34.42 117.923 34.8 118.443 35.04C118.963 35.2667 119.543 35.38 120.183 35.38C121.21 35.38 122.083 35.1667 122.803 34.74C123.523 34.3133 124.203 33.7067 124.843 32.92V23.72ZM129.783 18.48V45.7H124.843V36.4C124.03 37.2667 123.11 37.9667 122.083 38.5C121.057 39.0333 119.863 39.3 118.503 39.3C117.383 39.3 116.357 39.0667 115.423 38.6C114.49 38.1333 113.683 37.46 113.003 36.58C112.337 35.6867 111.817 34.5867 111.443 33.28C111.083 31.9733 110.903 30.48 110.903 28.8C110.903 27.28 111.11 25.8667 111.523 24.56C111.937 23.2533 112.53 22.12 113.303 21.16C114.077 20.2 115.003 19.4533 116.083 18.92C117.163 18.3733 118.377 18.1 119.723 18.1C121.003 18.1 122.077 18.32 122.943 18.76C123.81 19.2 124.583 19.7933 125.263 20.54L125.523 19.38C125.697 18.78 126.11 18.48 126.763 18.48H129.783ZM139.659 9.28V39H134.719V9.28H139.659ZM155.421 30.24C153.994 30.3067 152.794 30.4333 151.821 30.62C150.847 30.7933 150.067 31.02 149.481 31.3C148.894 31.58 148.474 31.9067 148.221 32.28C147.967 32.6533 147.841 33.06 147.841 33.5C147.841 34.3667 148.094 34.9867 148.601 35.36C149.121 35.7333 149.794 35.92 150.621 35.92C151.634 35.92 152.507 35.74 153.241 35.38C153.987 35.0067 154.714 34.4467 155.421 33.7V30.24ZM144.101 21.34C146.461 19.18 149.301 18.1 152.621 18.1C153.821 18.1 154.894 18.3 155.841 18.7C156.787 19.0867 157.587 19.6333 158.241 20.34C158.894 21.0333 159.387 21.8667 159.721 22.84C160.067 23.8133 160.241 24.88 160.241 26.04V39H158.001C157.534 39 157.174 38.9333 156.921 38.8C156.667 38.6533 156.467 38.3667 156.321 37.94L155.881 36.46C155.361 36.9267 154.854 37.34 154.361 37.7C153.867 38.0467 153.354 38.34 152.821 38.58C152.287 38.82 151.714 39 151.101 39.12C150.501 39.2533 149.834 39.32 149.101 39.32C148.234 39.32 147.434 39.2067 146.701 38.98C145.967 38.74 145.334 38.3867 144.801 37.92C144.267 37.4533 143.854 36.8733 143.561 36.18C143.267 35.4867 143.121 34.68 143.121 33.76C143.121 33.24 143.207 32.7267 143.381 32.22C143.554 31.7 143.834 31.2067 144.221 30.74C144.621 30.2733 145.134 29.8333 145.761 29.42C146.387 29.0067 147.154 28.6467 148.061 28.34C148.981 28.0333 150.047 27.7867 151.261 27.6C152.474 27.4 153.861 27.28 155.421 27.24V26.04C155.421 24.6667 155.127 23.6533 154.541 23C153.954 22.3333 153.107 22 152.001 22C151.201 22 150.534 22.0933 150.001 22.28C149.481 22.4667 149.021 22.68 148.621 22.92C148.221 23.1467 147.854 23.3533 147.521 23.54C147.201 23.7267 146.841 23.82 146.441 23.82C146.094 23.82 145.801 23.7333 145.561 23.56C145.321 23.3733 145.127 23.16 144.981 22.92L144.101 21.34ZM169.833 33.68C170.393 34.36 171 34.84 171.653 35.12C172.32 35.4 173.02 35.54 173.753 35.54C174.513 35.54 175.193 35.4067 175.793 35.14C176.406 34.86 176.926 34.4333 177.353 33.86C177.78 33.2733 178.106 32.5333 178.333 31.64C178.56 30.7333 178.673 29.6533 178.673 28.4C178.673 26.1467 178.3 24.52 177.553 23.52C176.806 22.5067 175.733 22 174.333 22C173.386 22 172.56 22.22 171.853 22.66C171.146 23.0867 170.473 23.6933 169.833 24.48V33.68ZM169.833 21C170.66 20.1333 171.573 19.4467 172.573 18.94C173.586 18.42 174.74 18.16 176.033 18.16C177.22 18.16 178.286 18.3933 179.233 18.86C180.193 19.3267 181.006 20 181.673 20.88C182.353 21.7467 182.873 22.8 183.233 24.04C183.593 25.28 183.773 26.6733 183.773 28.22C183.773 29.8867 183.566 31.4 183.153 32.76C182.74 34.12 182.146 35.2867 181.373 36.26C180.613 37.22 179.693 37.9667 178.613 38.5C177.533 39.0333 176.333 39.3 175.013 39.3C174.373 39.3 173.793 39.2333 173.273 39.1C172.753 38.98 172.273 38.8067 171.833 38.58C171.393 38.3533 170.986 38.08 170.613 37.76C170.253 37.4267 169.906 37.06 169.573 36.66L169.353 38.04C169.273 38.3867 169.133 38.6333 168.933 38.78C168.746 38.9267 168.486 39 168.153 39H164.893V9.28H169.833V21Z" fill="#12152E"/>
<path d="M23.9175 25.1915C24.5538 25.1915 25.07 25.7147 25.07 26.3597L25.07 41.1579C25.07 41.2521 24.9948 41.3286 24.9018 41.3288L23.742 41.3317C15.0254 41.3533 7.94547 34.1854 7.95686 25.3505C7.95697 25.2626 8.02724 25.1915 8.11394 25.1915L23.9175 25.1915Z" fill="#12152E" fill-opacity="0.9"/>
<path d="M7.95627 9.68461C7.95627 9.03977 8.47233 8.51668 9.10852 8.51668L24.6464 8.51665C24.7334 8.51665 24.8039 8.58813 24.8038 8.67632C24.798 17.4995 17.7353 24.6536 9.03056 24.6536L8.12276 24.6536C8.03078 24.6536 7.95627 24.578 7.95627 24.4848L7.95627 9.68461Z" fill="#12152E" fill-opacity="0.9"/>
<path d="M26.4851 24.6536C25.8498 24.6536 25.3351 24.1319 25.3351 23.488L25.3351 8.68756C25.3351 8.59476 25.4094 8.51949 25.501 8.51949L26.3149 8.51949C35.0175 8.51949 42.0639 15.673 42.0504 24.494C42.0502 24.5821 41.9797 24.6536 41.8927 24.6536L26.4851 24.6536Z" fill="#12152E" fill-opacity="0.9"/>
<path d="M42.0504 40.1605C42.0504 40.8053 41.5343 41.3284 40.8982 41.3284L25.758 41.3284C25.6711 41.3284 25.6007 41.257 25.6007 41.1689C25.6007 32.3473 32.6603 25.1915 41.3634 25.1915L41.8878 25.1915C41.9776 25.1915 42.0504 25.2652 42.0504 25.3563L42.0504 40.1605Z" fill="#12152E" fill-opacity="0.9"/>
</svg>
