<svg width="34" height="20" viewBox="0 0 34 20" fill="none" xmlns="http://www.w3.org/2000/svg">
<path d="M17 0C17.7571 0.00321475 18.4821 0.308708 19.0158 0.849476L33.3125 15.2474C33.7809 15.7982 34.0257 16.5068 33.9979 17.2316C33.9701 17.9563 33.6718 18.6438 33.1625 19.1566C32.6533 19.6694 31.9707 19.9699 31.251 19.9979C30.5314 20.0258 29.8278 19.7793 29.2808 19.3076L17 6.95419L4.71919 19.3076C4.1722 19.7793 3.46859 20.0258 2.74897 19.9979C2.02934 19.9699 1.34671 19.6694 0.837479 19.1566C0.328248 18.6438 0.0299284 17.9563 0.00213242 17.2316C-0.0256635 16.5068 0.219113 15.7982 0.687546 15.2474L14.9842 0.849476C15.5179 0.308708 16.2429 0.00321475 17 0Z" fill="#12152E"/>
</svg>
