<svg width="51" height="51" viewBox="0 0 51 51" fill="none" xmlns="http://www.w3.org/2000/svg">
<path fill-rule="evenodd" clip-rule="evenodd" d="M4.25 27.625H46.75V38.25C46.75 40.5972 44.8472 42.5 42.5 42.5H8.5C6.15279 42.5 4.25 40.5972 4.25 38.25V27.625ZM39.3125 38.25C41.0729 38.25 42.5 36.8229 42.5 35.0625C42.5 33.3021 41.0729 31.875 39.3125 31.875C37.5521 31.875 36.125 33.3021 36.125 35.0625C36.125 36.8229 37.5521 38.25 39.3125 38.25ZM28.6875 38.25C30.4479 38.25 31.875 36.8229 31.875 35.0625C31.875 33.3021 30.4479 31.875 28.6875 31.875C26.9271 31.875 25.5 33.3021 25.5 35.0625C25.5 36.8229 26.9271 38.25 28.6875 38.25Z" fill="#5A67D8"/>
<path opacity="0.3" fill-rule="evenodd" clip-rule="evenodd" d="M12.3095 17H38.6905C39.4098 17 40.0802 17.3638 40.4722 17.9669L46.75 27.625H4.25L10.5278 17.9669C10.9198 17.3638 11.5902 17 12.3095 17Z" fill="#5A67D8"/>
</svg>
