<svg width="50" height="50" viewBox="0 0 50 50" fill="none" xmlns="http://www.w3.org/2000/svg">
<path d="M14.5833 31.25C15.7339 31.25 16.6667 32.1828 16.6667 33.3333C16.6667 34.4839 15.7339 35.4167 14.5833 35.4167H12.5C9.04822 35.4167 6.25 32.6185 6.25 29.1667V14.5833C6.25 11.1316 9.04822 8.33334 12.5 8.33334H37.5C40.9518 8.33334 43.75 11.1316 43.75 14.5833V29.1667C43.75 32.6185 40.9518 35.4167 37.5 35.4167H35.4167C34.2661 35.4167 33.3333 34.4839 33.3333 33.3333C33.3333 32.1828 34.2661 31.25 35.4167 31.25H37.5C38.6506 31.25 39.5833 30.3173 39.5833 29.1667V14.5833C39.5833 13.4328 38.6506 12.5 37.5 12.5H12.5C11.3494 12.5 10.4167 13.4328 10.4167 14.5833V29.1667C10.4167 30.3173 11.3494 31.25 12.5 31.25H14.5833Z" fill="#5A67D8"/>
<path opacity="0.3" fill-rule="evenodd" clip-rule="evenodd" d="M16.6665 41.6667H33.3332L24.9998 31.25L16.6665 41.6667Z" fill="#5A67D8"/>
</svg>
