<svg width="50" height="50" viewBox="0 0 50 50" fill="none" xmlns="http://www.w3.org/2000/svg">
<path fill-rule="evenodd" clip-rule="evenodd" d="M34.1126 41.5395L46.2972 23.2626C46.7759 22.5445 46.5819 21.5744 45.8639 21.0958C45.6072 20.9246 45.3056 20.8333 44.9972 20.8333H35.4167V9.32725C35.4167 8.46431 34.7172 7.76475 33.8542 7.76475C33.3318 7.76475 32.8439 8.02585 32.5541 8.46053L20.3695 26.7374C19.8908 27.4555 20.0849 28.4256 20.8029 28.9042C21.0595 29.0754 21.3611 29.1667 21.6696 29.1667H31.25V40.6727C31.25 41.5357 31.9496 42.2352 32.8125 42.2352C33.335 42.2352 33.8228 41.9742 34.1126 41.5395Z" fill="#5A67D8"/>
<path opacity="0.3" fill-rule="evenodd" clip-rule="evenodd" d="M9.37516 10.4167H19.7918C21.5177 10.4167 22.9168 11.8158 22.9168 13.5417C22.9168 15.2676 21.5177 16.6667 19.7918 16.6667H9.37516C7.64927 16.6667 6.25016 15.2676 6.25016 13.5417C6.25016 11.8158 7.64927 10.4167 9.37516 10.4167ZM9.37516 35.4167H19.7918C21.5177 35.4167 22.9168 36.8158 22.9168 38.5417C22.9168 40.2676 21.5177 41.6667 19.7918 41.6667H9.37516C7.64927 41.6667 6.25016 40.2676 6.25016 38.5417C6.25016 36.8158 7.64927 35.4167 9.37516 35.4167ZM5.2085 22.9167H13.5418C15.2677 22.9167 16.6668 24.3158 16.6668 26.0417C16.6668 27.7676 15.2677 29.1667 13.5418 29.1667H5.2085C3.48261 29.1667 2.0835 27.7676 2.0835 26.0417C2.0835 24.3158 3.48261 22.9167 5.2085 22.9167Z" fill="#5A67D8"/>
</svg>
