<svg width="50" height="50" viewBox="0 0 50 50" fill="none" xmlns="http://www.w3.org/2000/svg">
<path d="M12.5 18.75V31.25C12.5 34.7018 15.2982 37.5 18.75 37.5H31.25V39.2046C31.25 42.151 29.651 43.75 26.7045 43.75H10.7955C7.84898 43.75 6.25 42.151 6.25 39.2046V23.2955C6.25 20.349 7.84898 18.75 10.7955 18.75H12.5ZM35.4167 33.3333V20.8333C35.4167 17.3816 32.6184 14.5833 29.1667 14.5833H16.6667V12.8788C16.6667 9.93233 18.2657 8.33334 21.2121 8.33334H37.1212C40.0677 8.33334 41.6667 9.93233 41.6667 12.8788V28.7879C41.6667 31.7344 40.0677 33.3333 37.1212 33.3333H35.4167Z" fill="#5A67D8"/>
<path opacity="0.3" fill-rule="evenodd" clip-rule="evenodd" d="M19.318 18.75H28.5983C30.3171 18.75 31.2498 19.6827 31.2498 21.4015V30.6818C31.2498 32.4006 30.3171 33.3333 28.5983 33.3333H19.318C17.5992 33.3333 16.6665 32.4006 16.6665 30.6818V21.4015C16.6665 19.6827 17.5992 18.75 19.318 18.75Z" fill="#5A67D8"/>
</svg>
