<svg width="50" height="50" viewBox="0 0 50 50" fill="none" xmlns="http://www.w3.org/2000/svg">
<g clip-path="url(#clip0_793_1021)">
<path opacity="0.3" fill-rule="evenodd" clip-rule="evenodd" d="M11.4583 4.16666H38.5416C40.2675 4.16666 41.6666 5.56577 41.6666 7.29166V13.5417C41.6666 15.2675 40.2675 16.6667 38.5416 16.6667H11.4583C9.73236 16.6667 8.33325 15.2675 8.33325 13.5417V7.29166C8.33325 5.56577 9.73236 4.16666 11.4583 4.16666ZM22.9166 8.33332C21.766 8.33332 20.8333 9.26606 20.8333 10.4167C20.8333 11.5672 21.766 12.5 22.9166 12.5H27.0833C28.2338 12.5 29.1666 11.5672 29.1666 10.4167C29.1666 9.26606 28.2338 8.33332 27.0833 8.33332H22.9166Z" fill="#5A67D8"/>
<path fill-rule="evenodd" clip-rule="evenodd" d="M11.4583 18.75H38.5416C40.2675 18.75 41.6666 20.1491 41.6666 21.875V28.125C41.6666 29.8509 40.2675 31.25 38.5416 31.25H11.4583C9.73236 31.25 8.33325 29.8509 8.33325 28.125V21.875C8.33325 20.1491 9.73236 18.75 11.4583 18.75ZM22.9166 22.9167C21.766 22.9167 20.8333 23.8494 20.8333 25C20.8333 26.1506 21.766 27.0833 22.9166 27.0833H27.0833C28.2338 27.0833 29.1666 26.1506 29.1666 25C29.1666 23.8494 28.2338 22.9167 27.0833 22.9167H22.9166ZM11.4583 33.3333H38.5416C40.2675 33.3333 41.6666 34.7324 41.6666 36.4583V42.7083C41.6666 44.4342 40.2675 45.8333 38.5416 45.8333H11.4583C9.73236 45.8333 8.33325 44.4342 8.33325 42.7083V36.4583C8.33325 34.7324 9.73236 33.3333 11.4583 33.3333ZM22.9166 37.5C21.766 37.5 20.8333 38.4327 20.8333 39.5833C20.8333 40.7339 21.766 41.6667 22.9166 41.6667H27.0833C28.2338 41.6667 29.1666 40.7339 29.1666 39.5833C29.1666 38.4327 28.2338 37.5 27.0833 37.5H22.9166Z" fill="#5A67D8"/>
</g>
<defs>
<clipPath id="clip0_793_1021">
<rect width="50" height="50" fill="white"/>
</clipPath>
</defs>
</svg>
