<svg width="50" height="50" viewBox="0 0 50 50" fill="none" xmlns="http://www.w3.org/2000/svg">
<g clip-path="url(#clip0_793_1020)">
<path d="M10.4167 21.875C10.4167 12.5 16.6667 6.25 26.0417 6.25C35.4167 6.25 41.6667 14.0625 41.6667 21.875C41.6667 26.7345 37.1327 33.4076 28.0646 41.8944C26.9072 42.9776 25.122 43.0226 23.9114 41.9989C14.915 34.3913 10.4167 27.6833 10.4167 21.875ZM26.0417 25C28.9182 25 31.2501 22.6682 31.2501 19.7917C31.2501 16.9152 28.9182 14.5833 26.0417 14.5833C23.1653 14.5833 20.8334 16.9152 20.8334 19.7917C20.8334 22.6682 23.1653 25 26.0417 25Z" fill="#5A67D8"/>
</g>
<defs>
<clipPath id="clip0_793_1020">
<rect width="50" height="50" fill="white"/>
</clipPath>
</defs>
</svg>
