<svg width="50" height="50" viewBox="0 0 50 50" fill="none" xmlns="http://www.w3.org/2000/svg">
<path fill-rule="evenodd" clip-rule="evenodd" d="M11.4585 8.33333H19.7918C21.5177 8.33333 22.9168 9.73244 22.9168 11.4583V13.5417C22.9168 15.2676 21.5177 16.6667 19.7918 16.6667H11.4585C9.73261 16.6667 8.3335 15.2676 8.3335 13.5417V11.4583C8.3335 9.73244 9.73261 8.33333 11.4585 8.33333ZM30.2085 33.3333H38.5418C40.2677 33.3333 41.6668 34.7324 41.6668 36.4583V38.5417C41.6668 40.2676 40.2677 41.6667 38.5418 41.6667H30.2085C28.4826 41.6667 27.0835 40.2676 27.0835 38.5417V36.4583C27.0835 34.7324 28.4826 33.3333 30.2085 33.3333Z" fill="#5A67D8"/>
<path opacity="0.3" fill-rule="evenodd" clip-rule="evenodd" d="M11.4585 20.8333H19.7918C21.5177 20.8333 22.9168 22.2324 22.9168 23.9583V38.5417C22.9168 40.2676 21.5177 41.6667 19.7918 41.6667H11.4585C9.73261 41.6667 8.3335 40.2676 8.3335 38.5417V23.9583C8.3335 22.2324 9.73261 20.8333 11.4585 20.8333ZM30.2085 8.33333H38.5418C40.2677 8.33333 41.6668 9.73244 41.6668 11.4583V26.0417C41.6668 27.7676 40.2677 29.1667 38.5418 29.1667H30.2085C28.4826 29.1667 27.0835 27.7676 27.0835 26.0417V11.4583C27.0835 9.73244 28.4826 8.33333 30.2085 8.33333Z" fill="#5A67D8"/>
</svg>
