<svg width="50" height="51" viewBox="0 0 50 51" fill="none" xmlns="http://www.w3.org/2000/svg">
<path opacity="0.3" d="M39.5846 23.158H43.7513C44.9019 23.158 45.8346 24.0984 45.8346 25.2585C45.8346 26.4185 44.9019 27.3589 43.7513 27.3589H39.5846C38.434 27.3589 37.5013 26.4185 37.5013 25.2585C37.5013 24.0984 38.434 23.158 39.5846 23.158ZM6.2513 23.158H10.418C11.5686 23.158 12.5013 24.0984 12.5013 25.2585C12.5013 26.4185 11.5686 27.3589 10.418 27.3589H6.2513C5.10071 27.3589 4.16797 26.4185 4.16797 25.2585C4.16797 24.0984 5.10071 23.158 6.2513 23.158ZM25.0013 4.25378C26.1519 4.25378 27.0846 5.1942 27.0846 6.35425V10.5552C27.0846 11.7152 26.1519 12.6557 25.0013 12.6557C23.8507 12.6557 22.918 11.7152 22.918 10.5552V6.35425C22.918 5.1942 23.8507 4.25378 25.0013 4.25378ZM25.0013 37.8613C26.1519 37.8613 27.0846 38.8017 27.0846 39.9618V44.1627C27.0846 45.3228 26.1519 46.2632 25.0013 46.2632C23.8507 46.2632 22.918 45.3228 22.918 44.1627V39.9618C22.918 38.8017 23.8507 37.8613 25.0013 37.8613Z" fill="#5A67D8"/>
<path opacity="0.3" d="M24.9987 29.4592C27.2999 29.4592 29.1654 27.5784 29.1654 25.2583C29.1654 22.9382 27.2999 21.0574 24.9987 21.0574C22.6975 21.0574 20.832 22.9382 20.832 25.2583C20.832 27.5784 22.6975 29.4592 24.9987 29.4592Z" fill="#5A67D8"/>
<path d="M25.0013 35.7608C30.7543 35.7608 35.418 31.0587 35.418 25.2585C35.418 19.4582 30.7543 14.7561 25.0013 14.7561C19.2483 14.7561 14.5846 19.4582 14.5846 25.2585C14.5846 31.0587 19.2483 35.7608 25.0013 35.7608ZM25.0013 39.9617C16.9471 39.9617 10.418 33.3789 10.418 25.2585C10.418 17.1381 16.9471 10.5552 25.0013 10.5552C33.0555 10.5552 39.5846 17.1381 39.5846 25.2585C39.5846 33.3789 33.0555 39.9617 25.0013 39.9617Z" fill="#5A67D8"/>
</svg>
