<svg width="50" height="50" viewBox="0 0 50 50" fill="none" xmlns="http://www.w3.org/2000/svg">
<g clip-path="url(#clip0_793_1017)">
<path opacity="0.3" fill-rule="evenodd" clip-rule="evenodd" d="M24.9999 41.7122L17.653 45.268L14.3105 37.8216L6.39679 35.8229L8.62273 27.9701L3.84521 21.3522L10.5981 16.7674L11.1922 8.6269L19.3122 9.45541L24.9999 3.60129L30.6877 9.45541L38.8077 8.6269L39.4018 16.7674L46.1547 21.3522L41.3771 27.9701L43.6031 35.8229L35.6894 37.8216L32.3469 45.268L24.9999 41.7122Z" fill="#5A67D8"/>
<path fill-rule="evenodd" clip-rule="evenodd" d="M29.3521 17.922L17.4182 30.628L20.2263 33.4361L32.1602 20.7301L29.3521 17.922Z" fill="#5A67D8"/>
<path opacity="0.3" fill-rule="evenodd" clip-rule="evenodd" d="M22.6132 19.1154C22.6132 21.0943 21.0115 22.6956 19.0331 22.6956C17.0582 22.6956 15.4529 21.0943 15.4529 19.1154C15.4529 17.1365 17.0582 15.5352 19.0331 15.5352C21.0115 15.5352 22.6132 17.1365 22.6132 19.1154Z" fill="#5A67D8"/>
<path opacity="0.3" fill-rule="evenodd" clip-rule="evenodd" d="M30.9669 34.6295C28.9921 34.6295 27.3867 33.0282 27.3867 31.0493C27.3867 29.0668 28.9921 27.4691 30.9669 27.4691C32.9454 27.4691 34.5471 29.0668 34.5471 31.0493C34.5471 33.0282 32.9454 34.6295 30.9669 34.6295Z" fill="#5A67D8"/>
</g>
<defs>
<clipPath id="clip0_793_1017">
<rect width="50" height="50" fill="white"/>
</clipPath>
</defs>
</svg>
