<svg width="50" height="50" viewBox="0 0 50 50" fill="none" xmlns="http://www.w3.org/2000/svg">
<path fill-rule="evenodd" clip-rule="evenodd" d="M28.5117 38.9755C33.1489 37.1229 38.9229 35.9366 45.8335 35.4167C45.8335 35.2761 45.8335 27.2944 45.8335 11.4715C45.8335 10.8962 45.3671 10.4299 44.7919 10.4299C44.7831 10.4299 44.7743 10.43 44.7655 10.4302C38.8715 10.5794 32.9775 11.9638 27.0835 14.5834C27.0835 14.6761 27.0835 22.4843 27.0835 38.0081C27.0835 38.5834 27.5499 39.0498 28.1252 39.0498C28.2576 39.0498 28.3887 39.0246 28.5117 38.9755Z" fill="#5A67D8"/>
<path opacity="0.3" fill-rule="evenodd" clip-rule="evenodd" d="M21.4884 38.9755C16.8511 37.1229 11.0772 35.9366 4.1665 35.4167C4.1665 35.2761 4.1665 27.2944 4.1665 11.4715C4.1665 10.8962 4.6329 10.4299 5.20817 10.4299C5.21696 10.4299 5.22575 10.43 5.23453 10.4302C11.1285 10.5794 17.0225 11.9638 22.9165 14.5834C22.9165 14.6761 22.9165 22.4843 22.9165 38.0081C22.9165 38.5834 22.4502 39.0498 21.8748 39.0498C21.7425 39.0498 21.6113 39.0246 21.4884 38.9755Z" fill="#5A67D8"/>
</svg>
