<svg width="50" height="50" viewBox="0 0 50 50" fill="none" xmlns="http://www.w3.org/2000/svg">
<g clip-path="url(#clip0_793_1018)">
<path d="M9.37508 12.5H40.6251C43.5016 12.5 45.8334 14.5209 45.8334 17.0139V35.0694C45.8334 37.5624 43.5016 39.5833 40.6251 39.5833H9.37508C6.4986 39.5833 4.16675 37.5624 4.16675 35.0694V17.0139C4.16675 14.5209 6.4986 12.5 9.37508 12.5ZM8.33342 16.6667V35.4167H41.6668V16.6667H8.33342Z" fill="#5A67D8"/>
<path opacity="0.3" fill-rule="evenodd" clip-rule="evenodd" d="M8.33325 16.6667V35.4167H41.6666V16.6667H8.33325Z" fill="#5A67D8"/>
<path opacity="0.3" d="M34.3749 41.6667H15.6249C15.0496 41.6667 14.5833 42.133 14.5833 42.7083C14.5833 43.2836 15.0496 43.75 15.6249 43.75H34.3749C34.9502 43.75 35.4166 43.2836 35.4166 42.7083C35.4166 42.133 34.9502 41.6667 34.3749 41.6667Z" fill="#5A67D8"/>
</g>
<defs>
<clipPath id="clip0_793_1018">
<rect width="50" height="50" fill="white"/>
</clipPath>
</defs>
</svg>
